<?xml version="1.0" encoding="utf-8"?>
<!-- Generator: Adobe Illustrator 24.3.0, SVG Export Plug-In . SVG Version: 6.00 Build 0)  -->
<svg version="1.1" id="Warstwa_1" xmlns="http://www.w3.org/2000/svg" xmlns:xlink="http://www.w3.org/1999/xlink" x="0px" y="0px"
	 viewBox="0 0 232 232" style="enable-background:new 0 0 232 232;" xml:space="preserve" preserveAspectRatio="xMidYMid meet">
<style type="text/css">
	.st0{fill:#330000;}
	.st1{fill:#754E39;}
	.st2{fill:#FF9A00;}
</style>
<path class="st0" d="M232,116c0,3.7-6.7,7.1-7,10.7c-0.4,3.7,5.5,8.3,4.8,11.9c-0.7,3.6-7.9,5.7-9,9.2c-1.1,3.5,3.8,9.2,2.4,12.6
	c-1.4,3.4-8.9,4-10.6,7.2c-1.7,3.3,1.9,9.8-0.1,12.8c-2.1,3.1-9.5,2.2-11.8,5c-2.3,2.9,0,9.9-2.6,12.6c-2.6,2.6-9.7,0.3-12.6,2.6
	c-2.8,2.3-1.9,9.8-5,11.8c-3.1,2-9.6-1.6-12.8,0.1c-3.2,1.7-3.8,9.2-7.2,10.6c-3.4,1.4-9.1-3.5-12.6-2.4c-3.5,1.1-5.5,8.3-9.2,9
	c-3.6,0.7-8.2-5.2-11.9-4.8c-3.6,0.4-7,7-10.7,7c-3.7,0-7.1-6.7-10.7-7c-3.7-0.4-8.3,5.5-11.9,4.8c-3.6-0.7-5.7-7.9-9.2-9
	c-3.5-1.1-9.2,3.8-12.6,2.4c-3.4-1.4-4-8.9-7.2-10.6c-3.3-1.7-9.8,1.9-12.8-0.1c-3.1-2.1-2.2-9.5-5-11.8c-2.9-2.3-9.9,0-12.6-2.6
	c-2.6-2.6-0.3-9.7-2.6-12.6c-2.3-2.8-9.8-1.9-11.8-5c-2.1-3.1,1.6-9.6-0.1-12.8c-1.7-3.2-9.2-3.8-10.6-7.2
	c-1.4-3.4,3.5-9.1,2.4-12.6c-1.1-3.5-8.3-5.5-9-9.2c-0.7-3.6,5.2-8.2,4.8-11.9c-0.4-3.6-7-7-7-10.7c0-3.7,6.7-7.1,7-10.7
	c0.4-3.7-5.5-8.3-4.8-11.9c0.7-3.6,7.9-5.7,9-9.2c1.1-3.6-3.8-9.2-2.4-12.6c1.4-3.4,8.9-4,10.6-7.2c1.7-3.3-1.9-9.8,0.1-12.8
	c2.1-3.1,9.5-2.2,11.8-5c2.4-2.9,0-10,2.6-12.6c2.6-2.6,9.7-0.3,12.6-2.6c2.9-2.3,1.9-9.8,5-11.8c3.1-2,9.6,1.6,12.8-0.1
	c3.2-1.7,3.8-9.2,7.2-10.6c3.4-1.4,9.1,3.5,12.6,2.4c3.5-1.1,5.5-8.3,9.2-9c3.6-0.7,8.2,5.2,11.9,4.8c3.6-0.4,7-7,10.7-7
	c3.7,0,7.1,6.7,10.7,7c3.7,0.4,8.3-5.5,11.9-4.8c3.6,0.7,5.7,7.9,9.2,9c3.6,1.1,9.2-3.8,12.6-2.4c3.4,1.4,4,8.9,7.2,10.6
	c3.3,1.7,9.8-1.9,12.8,0.1c3.1,2.1,2.2,9.5,5,11.8c2.9,2.3,9.9,0,12.6,2.6c2.6,2.6,0.3,9.7,2.6,12.6c2.3,2.8,9.8,1.9,11.8,5
	c2,3.1-1.6,9.6,0.1,12.8c1.7,3.2,9.2,3.8,10.6,7.2c1.4,3.4-3.5,9.1-2.4,12.6c1.1,3.5,8.3,5.5,9,9.2c0.7,3.6-5.2,8.2-4.8,11.9
	C225.3,108.9,232,112.3,232,116z"/>
<path class="st1" d="M115.5,207.9c-50.7,0-91.9-41.2-91.9-91.9c0-50.7,41.2-91.9,91.9-91.9c50.7,0,91.9,41.2,91.9,91.9
	C207.4,166.6,166.2,207.9,115.5,207.9z M115.5,25.1c-50.1,0-90.9,40.8-90.9,90.9c0,50.1,40.8,90.9,90.9,90.9
	c50.1,0,90.9-40.8,90.9-90.9C206.4,65.9,165.7,25.1,115.5,25.1z"/>
<path class="st1" d="M115.5,14.6C59.5,14.6,14.1,60,14.1,116c0,56,45.4,101.4,101.4,101.4c56,0,101.4-45.4,101.4-101.4
	C216.9,60,171.5,14.6,115.5,14.6z M115.5,214.4c-54.4,0-98.5-44.1-98.5-98.5c0-54.4,44.1-98.5,98.5-98.5c54.4,0,98.5,44.1,98.5,98.5
	C214,170.4,169.9,214.4,115.5,214.4z"/>
<g id="Outlined_Mnemonics_Logos">
	<g id="Ai">
		<path class="st2" d="M109.5,132.6H79.8l-6.1,18.8c-0.2,0.7-0.8,1.2-1.5,1.1h-15c-0.9,0-1.1-0.5-0.9-1.4L82,76.9
			c0.2-0.8,0.5-1.7,0.8-2.6c0.3-1.7,0.5-3.4,0.5-5.2c-0.1-0.4,0.2-0.8,0.6-0.9c0.1,0,0.2,0,0.2,0h20.5c0.6,0,1,0.2,1,0.6l29.2,82.4
			c0.2,0.9,0,1.3-0.8,1.3h-16.7c-0.6,0.1-1.1-0.3-1.3-0.9L109.5,132.6z M84.4,116.4h20.3c-0.5-1.7-1.1-3.7-1.8-5.8
			c-0.7-2.2-1.4-4.5-2.2-6.9c-0.8-2.5-1.5-4.9-2.3-7.4c-0.8-2.5-1.5-4.8-2.2-7.1c-0.6-2.2-1.2-4.3-1.8-6.2h-0.2
			c-0.7,3.4-1.6,6.9-2.7,10.3c-1.2,3.8-2.4,7.8-3.7,11.8C86.8,109.3,85.6,113,84.4,116.4L84.4,116.4z"/>
		<path class="st2" d="M152.3,81.9c-2.6,0.1-5.2-1-7.1-2.8c-1.8-2-2.8-4.6-2.7-7.4c-0.1-2.7,1-5.3,2.9-7.1c1.9-1.8,4.5-2.8,7.1-2.8
			c3.1,0,5.5,1,7.3,2.8c1.8,1.9,2.7,4.5,2.6,7.1c0.1,2.7-0.9,5.4-2.8,7.4C157.8,81,155.1,82.1,152.3,81.9z M143.4,151.3V89.7
			c0-0.8,0.3-1.1,1-1.1h15.8c0.7,0,1,0.4,1,1.1v61.6c0,0.9-0.3,1.3-1,1.3h-15.7C143.8,152.6,143.4,152.1,143.4,151.3z"/>
	</g>
</g>
</svg>
