<?xml version="1.0" encoding="utf-8"?>
<!-- Generator: Adobe Illustrator 24.3.0, SVG Export Plug-In . SVG Version: 6.00 Build 0)  -->
<svg version="1.1" id="Warstwa_1" xmlns="http://www.w3.org/2000/svg" xmlns:xlink="http://www.w3.org/1999/xlink" x="0px" y="0px"
	 viewBox="0 0 232 232" style="enable-background:new 0 0 232 232;" xml:space="preserve" preserveAspectRatio="xMidYMid meet">
<style type="text/css">
	.st0{fill:#612A7D;}
	.st1{fill:#9070A3;}
	.st2{display:none;}
	.st3{fill:none;}
	.st4{fill:#091724;}
	.st5{fill-opacity:0;}
	.st6{fill:#EFEEEE;}
	.st7{fill:#89C540;}
	.st8{opacity:0.3;fill-rule:evenodd;clip-rule:evenodd;enable-background:new    ;}
	.st9{opacity:0.4;fill-rule:evenodd;clip-rule:evenodd;enable-background:new    ;}
	.st10{fill:#010101;}
</style>
<path class="st0" d="M232,116c0,3.7-6.7,7.1-7,10.7c-0.4,3.7,5.5,8.3,4.8,11.9c-0.7,3.6-7.9,5.7-9,9.2c-1.1,3.5,3.8,9.2,2.4,12.6
	c-1.4,3.4-8.9,4-10.6,7.2c-1.7,3.3,1.9,9.8-0.1,12.8c-2.1,3.1-9.5,2.2-11.8,5c-2.3,2.9,0,9.9-2.6,12.6c-2.6,2.6-9.7,0.3-12.6,2.6
	c-2.8,2.3-1.9,9.8-5,11.8c-3.1,2-9.6-1.6-12.8,0.1c-3.2,1.7-3.8,9.2-7.2,10.6c-3.4,1.4-9.1-3.5-12.6-2.4c-3.5,1.1-5.5,8.3-9.2,9
	c-3.6,0.7-8.2-5.2-11.9-4.8c-3.6,0.4-7,7-10.7,7s-7.1-6.7-10.7-7c-3.7-0.4-8.3,5.5-11.9,4.8c-3.6-0.7-5.7-7.9-9.2-9
	c-3.5-1.1-9.2,3.8-12.6,2.4c-3.4-1.4-4-8.9-7.2-10.6c-3.3-1.7-9.8,1.9-12.8-0.1c-3.1-2.1-2.2-9.5-5-11.8c-2.9-2.3-9.9,0-12.6-2.6
	c-2.6-2.6-0.3-9.7-2.6-12.6c-2.3-2.8-9.8-1.9-11.8-5c-2-3.1,1.6-9.6-0.1-12.8c-1.7-3.2-9.2-3.8-10.6-7.2c-1.4-3.4,3.5-9.1,2.4-12.6
	c-1.1-3.5-8.3-5.5-9-9.2c-0.7-3.6,5.2-8.2,4.8-11.9c-0.4-3.6-7-7-7-10.7c0-3.7,6.7-7.1,7-10.7c0.4-3.7-5.5-8.3-4.8-11.9
	c0.7-3.6,7.9-5.7,9-9.2c1.1-3.6-3.8-9.2-2.4-12.6c1.4-3.4,8.9-4,10.6-7.2c1.7-3.3-1.9-9.8,0.1-12.8c2.1-3.1,9.5-2.2,11.8-5
	c2.3-2.9,0-9.9,2.6-12.6c2.6-2.6,9.7-0.3,12.6-2.6c2.9-2.3,1.9-9.8,5-11.8c3.1-2,9.6,1.6,12.8-0.1c3.2-1.7,3.8-9.2,7.2-10.6
	c3.4-1.4,9.1,3.5,12.6,2.4c3.5-1.1,5.5-8.3,9.2-9c3.6-0.7,8.2,5.2,11.9,4.8c3.6-0.4,7-7,10.7-7s7.1,6.7,10.7,7
	c3.7,0.4,8.3-5.5,11.9-4.8c3.6,0.7,5.7,7.9,9.2,9c3.5,1.1,9.2-3.8,12.6-2.4c3.4,1.4,4,8.9,7.2,10.6c3.3,1.7,9.8-1.9,12.8,0.1
	c3.1,2.1,2.2,9.5,5,11.8c2.9,2.3,10,0,12.6,2.6c2.6,2.6,0.3,9.7,2.6,12.6c2.3,2.8,9.8,1.9,11.8,5c2.1,3.1-1.6,9.6,0.1,12.8
	c1.7,3.2,9.2,3.8,10.6,7.2c1.4,3.4-3.5,9.1-2.4,12.6c1.1,3.5,8.3,5.5,9,9.2c0.7,3.6-5.2,8.2-4.8,11.9C225.3,108.9,232,112.3,232,116
	z"/>
<path class="st1" d="M116,207.9c-50.7,0-91.9-41.2-91.9-91.9S65.3,24.1,116,24.1c50.7,0,91.9,41.2,91.9,91.9S166.7,207.9,116,207.9z
	 M116,25.1c-50.1,0-90.9,40.8-90.9,90.9c0,50.1,40.8,90.9,90.9,90.9c50.1,0,90.9-40.8,90.9-90.9C206.9,65.9,166.1,25.1,116,25.1z"/>
<path class="st1" d="M116,14.6C60,14.6,14.6,60,14.6,116c0,56,45.4,101.4,101.4,101.4c56,0,101.4-45.4,101.4-101.4
	C217.4,60,172,14.6,116,14.6z M116,214.5c-54.4,0-98.5-44.1-98.5-98.5c0-54.4,44.1-98.5,98.5-98.5c54.4,0,98.5,44.1,98.5,98.5
	C214.5,170.4,170.4,214.5,116,214.5z"/>
<g>
	<circle id="circle" cx="123.9" cy="92.6" r="45.7"/>
	<path id="rect" class="st2" d="M276.6,61.4l-138.4,0.4c-5.8,0-10.4,4.7-10.4,10.4v40.9c0,5.8,4.7,10.4,10.4,10.4l138.4-0.4
		c5.8,0,10.4-4.7,10.4-10.4V71.8C287,66.1,282.3,61.4,276.6,61.4z"/>
</g>
<g>
	<path class="st3" d="M108.5,103.7c-0.3-0.1-0.6-0.1-0.9-0.1C107.9,103.6,108.2,103.6,108.5,103.7z"/>
	<path class="st3" d="M109.4,103.9c-0.2,0-0.4-0.1-0.5-0.1C109,103.8,109.2,103.8,109.4,103.9z"/>
	<path class="st3" d="M110.2,104.1c-0.1,0-0.3-0.1-0.4-0.1C109.9,104,110,104.1,110.2,104.1z"/>
	<path class="st3" d="M107.3,103.5c-0.2,0-0.5-0.1-0.7-0.1C106.9,103.5,107.1,103.5,107.3,103.5z"/>
	<path class="st3" d="M147.7,82.8c-0.3-1.1-2.9-2.1-1.6-4.9c-0.6-0.2-1.1-0.4-1.4-0.7c-0.5,1.4-0.8,2.9-0.8,4.7c0,0.4-0.1,1-0.1,1.6
		c0.4-0.3,0.9-0.6,1.4-0.6C146.1,83,147.1,83.2,147.7,82.8z"/>
	<path class="st3" d="M106.3,103.4c-0.2,0-0.5,0-0.7,0C105.8,103.4,106,103.4,106.3,103.4z"/>
	<path class="st3" d="M111.9,104.8c-0.1,0-0.2-0.1-0.3-0.1C111.8,104.7,111.9,104.8,111.9,104.8z"/>
	<path class="st3" d="M115.6,107.5C115.6,107.5,115.5,107.5,115.6,107.5C115.5,107.5,115.6,107.5,115.6,107.5z"/>
	<path class="st3" d="M114.6,106.6C114.6,106.6,114.6,106.6,114.6,106.6C114.6,106.6,114.6,106.6,114.6,106.6z"/>
	<path class="st3" d="M116.9,109.1c-0.1-0.1-0.2-0.2-0.3-0.3C116.7,108.9,116.8,109,116.9,109.1z"/>
	<path class="st3" d="M112.6,105.2c-0.1,0-0.2-0.1-0.2-0.1C112.4,105.1,112.5,105.1,112.6,105.2z"/>
	<path class="st3" d="M103.2,103.4c-2.4,0-4.4-0.3-6.1-0.8C98.8,103.1,100.8,103.4,103.2,103.4z"/>
	<path class="st3" d="M116.4,108.5c0-0.1-0.1-0.1-0.2-0.2C116.3,108.3,116.3,108.4,116.4,108.5z"/>
	<path class="st3" d="M113.2,105.5c-0.1,0-0.1-0.1-0.2-0.1C113.1,105.4,113.1,105.5,113.2,105.5z"/>
	<path class="st3" d="M110.9,104.4c-0.1,0-0.2-0.1-0.4-0.1C110.7,104.3,110.8,104.3,110.9,104.4z"/>
	<path class="st3" d="M89.2,90c0-0.2-0.1-0.4-0.1-0.6C89.1,89.5,89.2,89.8,89.2,90z"/>
	<path class="st3" d="M104.1,103.4c0.4,0,0.7,0,1.1,0C104.9,103.3,104.5,103.3,104.1,103.4z"/>
	<path class="st3" d="M89.3,90.8c0-0.2-0.1-0.4-0.1-0.7C89.3,90.3,89.3,90.5,89.3,90.8z"/>
	<path class="st3" d="M89.1,89.2c0-0.2-0.1-0.5-0.1-0.7C89,88.8,89.1,89,89.1,89.2z"/>
	<path class="st3" d="M85.7,81.2c1.5,1.6,2.5,4,3.1,6.6C88.2,85.1,87.2,82.8,85.7,81.2C85.7,81.2,85.7,81.2,85.7,81.2z"/>
	<path class="st3" d="M89,88.5c0-0.2-0.1-0.5-0.2-0.7C88.9,88,88.9,88.3,89,88.5z"/>
	<path class="st3" d="M115,107c0,0,0.1,0.1,0.1,0.1C115.1,107.1,115.1,107,115,107z"/>
	<path class="st3" d="M97.1,102.5c-0.9-0.3-1.6-0.6-2.3-1C95.4,101.9,96.2,102.3,97.1,102.5z"/>
	<path class="st3" d="M89.4,91.7c0-0.3-0.1-0.5-0.1-0.8C89.4,91.2,89.4,91.4,89.4,91.7z"/>
	<path class="st4" d="M120.9,88.6c0.1,0,0.7,0.5,1,0.7c0.3,0.2,0.8,0.2,0.8,0.2C122,89,121.4,88.8,120.9,88.6
		C120.9,88.5,120.9,88.5,120.9,88.6z"/>
	<path class="st5" d="M142.4,115.4c0-0.2,0.1-0.4,0.1-0.4c0,0,0,0,0,0C142.4,115,142.4,115.2,142.4,115.4
		C142.4,115.4,142.4,115.4,142.4,115.4z"/>
	<path class="st5" d="M141.2,122.7C141.2,122.7,141.2,122.8,141.2,122.7c0-0.3,0.1-0.7,0.1-1c0,0,0,0,0,0.1
		C141.3,122.1,141.3,122.4,141.2,122.7z"/>
	<path class="st5" d="M133.5,132.6c-0.6,0.9-1.2,2.3-1,3.1c0,0.2,0.1,0.3,0.2,0.4C132.2,135.4,132.7,133.6,133.5,132.6z"/>
	<path class="st5" d="M141.3,121.8C141.3,121.7,141.3,121.7,141.3,121.8c0.4-3,0.8-5.5,1-6.4c0,0,0,0,0,0
		C142.2,116.3,141.7,118.9,141.3,121.8z"/>
	<path class="st5" d="M141,127.4c0-1.5,0.1-3.1,0.3-4.6c0,0,0,0,0-0.1C141.1,124.3,141,125.9,141,127.4z"/>
	<path class="st5" d="M132.5,114.6c-0.5-0.1-0.8-0.2-0.8-0.2S132,114.5,132.5,114.6C132.5,114.6,132.5,114.6,132.5,114.6z"/>
	<path class="st5" d="M132.6,114.7c0.1,0,0.2,0,0.3,0.1c-0.1,0-0.3-0.1-0.4-0.1c0,0,0,0,0,0C132.5,114.7,132.6,114.7,132.6,114.7z"
		/>
	<path class="st5" d="M132.8,136.4C132.8,136.4,132.8,136.3,132.8,136.4c-0.1-0.1-0.1-0.2-0.2-0.2
		C132.7,136.2,132.7,136.3,132.8,136.4z"/>
	<path class="st5" d="M132.9,114.7c-0.1,0-0.2,0-0.3-0.1c1.7,0.5,5.6,1.2,9.8,0.3c0,0,0-0.1,0-0.1c0,0-0.1,0-0.1,0
		C138.3,115.8,134.7,115.2,132.9,114.7z"/>
	<path class="st5" d="M141.2,130.8c-0.2-1-0.3-2.2-0.3-3.5C141,128.6,141,129.8,141.2,130.8z"/>
	<path class="st5" d="M138.5,136.8L138.5,136.8c-2.5,0-5.1,0.1-5.8-0.5c0,0,0,0.1,0.1,0.1C133.6,137.1,136,137.2,138.5,136.8z"/>
	<path class="st5" d="M141.2,122.7c0-0.3,0.1-0.7,0.1-1c0,0,0,0,0,0.1C141.3,122.1,141.3,122.4,141.2,122.7z"/>
	<path class="st5" d="M141.2,122.7c0-0.3,0.1-0.7,0.1-1c0,0,0,0,0,0.1C141.3,122.1,141.3,122.4,141.2,122.7z"/>
	<path class="st5" d="M132.5,114.6c0,0,0.1,0,0.1,0C132.6,114.7,132.5,114.7,132.5,114.6L132.5,114.6z"/>
	<path class="st5" d="M132.5,114.6c0,0,0.1,0,0.1,0C132.6,114.7,132.5,114.7,132.5,114.6L132.5,114.6z"/>
	<path class="st5" d="M146.7,134.3c1.5,1.1,4.8,1.8,5.7,2.4c0.1,0.1,0.2,0.2,0.3,0.3c-0.4-1.3-3.1-2-3.1-2c-6.6-2.4-8.1-3.8-8.3-4.1
		c0,0,0,0.1,0,0.1C141.3,131.4,145.3,133.2,146.7,134.3z"/>
	<path class="st5" d="M146.7,134.3c1.5,1.1,4.8,1.8,5.7,2.4c0.1,0.1,0.2,0.2,0.3,0.3c-0.4-1.3-3.1-2-3.1-2c-6.6-2.4-8.1-3.8-8.3-4.1
		c0,0,0,0.1,0,0.1C141.3,131.4,145.3,133.2,146.7,134.3z"/>
	<path class="st5" d="M132.6,136.2c0,0,0.1,0.1,0.1,0.1c-0.4-0.7-0.1-1.8,0.5-3c0.2-0.4,0.3-0.7,0.4-0.9c0,0.1-0.1,0.2-0.2,0.2
		C132.7,133.6,132.2,135.4,132.6,136.2z"/>
	<path class="st5" d="M132.6,136.2c0,0,0.1,0.1,0.1,0.1c-0.4-0.7-0.1-1.8,0.5-3c0.2-0.4,0.3-0.7,0.4-0.9c0,0.1-0.1,0.2-0.2,0.2
		C132.7,133.6,132.2,135.4,132.6,136.2z"/>
	<path class="st5" d="M132.6,114.7c0,0-0.1,0-0.1,0v0c-0.5-0.1-0.8-0.3-0.8-0.3c-0.1,0.3-0.3,0.7-0.3,1c0.4,0.1,1.1,0.4,3,0.6
		c2.8,0.2,6.5-0.3,7.5-0.6c0.2-0.1,0.4-0.1,0.5,0c0-0.2,0.1-0.3,0.1-0.4C138.2,115.9,134.4,115.1,132.6,114.7z"/>
	<path class="st5" d="M132.6,114.7c0,0-0.1,0-0.1,0v0c-0.5-0.1-0.8-0.3-0.8-0.3c-0.1,0.3-0.3,0.7-0.3,1c0.4,0.1,1.1,0.4,3,0.6
		c2.8,0.2,6.5-0.3,7.5-0.6c0.2-0.1,0.4-0.1,0.5,0c0-0.2,0.1-0.3,0.1-0.4C138.2,115.9,134.4,115.1,132.6,114.7z"/>
	<path class="st5" d="M133.8,126.8c-0.2-1.4-0.5-2.4-0.9-3.3C133.3,124.5,133.6,125.6,133.8,126.8z"/>
	<path class="st5" d="M133.8,126.8c-0.2-1.4-0.5-2.4-0.9-3.3C133.3,124.5,133.6,125.6,133.8,126.8z"/>
	<path class="st5" d="M141,127.4c0-1.5,0.1-3.1,0.3-4.6c0-0.4,0.1-0.7,0.1-0.9c0,0,0,0,0-0.1c0.3-2.9,0.8-5.4,1-6.4
		c-0.1,0-0.2,0-0.5,0c-1,0.2-4.7,0.8-7.5,0.6c-1.9-0.1-2.7-0.4-3-0.6c-0.5,2.3,0.7,5.1,1.6,8c0.4,0.9,0.7,1.9,0.9,3.3
		c0.1,0.6,0.2,1.3,0.2,1.9c0,1.9,0.2,2.7-0.4,3.7c-0.1,0.3-0.2,0.6-0.4,0.9c-0.6,1.2-0.9,2.2-0.5,3c0.7,0.6,3.3,0.5,5.8,0.5l0,0l0,0
		c2.6-0.4,6.4,0.7,10.3,0.8c4,0.1,3.8-0.2,3.8-0.2c0-0.2,0-0.3-0.1-0.4c-0.1-0.1-0.2-0.2-0.3-0.3c-0.8-0.6-4.2-1.2-5.7-2.4
		c-1.4-1.1-5.4-2.8-5.4-3.3c0,0,0-0.1,0-0.1c0,0,0,0,0,0C141,129.8,141,128.6,141,127.4z"/>
	<g>
		<path class="st6" d="M135.4,57.9c0.6,0.1,1.6-0.5,2.3-0.9c0.1-0.1,0.2-0.1,0.3-0.2c-0.2-0.4,0-1.1,0-2.3c0-0.5-0.1-1.2-0.1-1.8
			c-0.7,0.7-1.5,1.3-2.2,1.6c-0.4,0.2-1.3,0.1-2.4,0.1c-1.1,0-2.4,0.1-3-0.4c-0.6-0.5-1.2-1.1-1.8-1.8c0,0.1,0,0.3,0,0.4
			c-0.1,0.8-0.1,1.2-0.2,1.8c0,0.2,0.5,0.6,1.1,1.5C130.9,56.8,134.3,57.7,135.4,57.9z"/>
		<path class="st6" d="M154,77.7c-0.5-1.7-2-2.1-4.3-0.7c0.9-1.5,2.2-1.6,2.4-2.1c0.9-2.5-0.6-4.7-1.2-5.5c0.8-1.9,1.5-4.6-1-7
			c-1.1-1-2.4-1.2-3.7-1.1c1.9,1.8,3.4,4.5,2.6,7.4c-0.1,0.3-0.9,0.7-1.7,1c0,0,0.5,2-0.4,3.6c-0.3,0.6-0.8,1.5-1.3,2.6c0,0,0,0,0,0
			c1,0.9,1.6,1,3.1,1.3c-0.9,0.1-1.2,0.4-1.3,0.6c-0.8,3.4,1.4,3.6,1.5,5.5c0,0,0,0.1,0,0.1v0c-0.3,0.3-1.5,0.5-2.6,0.5
			c-1.1,0-1.9,1-1.9,1c-0.2,0.2-0.3,0.3-0.4,0.4c0,0.4,0,0.8,0,1c0,0.4,0.3,1.6,0.5,2.6c0.9,0.6,1.4,0.9,2.3,1.2
			c0.6,0.1,1,0.2,1.5,0.1c0.3-0.1,0.7-0.3,1.1-0.7c1.6-1.7,2-3.3,2.2-4.2c0-0.1,0-0.2,0.1-0.2c0,0.1,0.1,0.1,0.1,0.2
			C153,83.5,154.8,80.3,154,77.7z"/>
		<path class="st6" d="M143.5,90.5C143.5,90.5,143.5,90.5,143.5,90.5c-0.1-0.9-0.5-1.8-0.7-3.2c-0.2-0.9-0.4-2-0.4-3.5l0,0
			c0-0.1,0-0.2,0.1-0.3c0,0,0,0,0-0.1c-1.1,0.1-6.5,0.7-10.8-0.4c-3.1-0.8-4-1.3-4.2-1.5c0,0.2-0.1,0.5-0.1,0.7
			c0,0.3-0.1,0.5-0.1,0.8h0c-0.1,0.2-0.2,0.4-0.2,0.6c0,0,0.1,0.1,0.1,0.1c0.5,0.6,1.6,1.3,1.6,2.1c0,0.1,0,0.1,0,0.2
			c-0.1,0.5-0.4,0.6-0.8,1c-0.2,0.2-1.5,1.6-1.7,1.7c-0.2,0.1-0.4,0.3-0.6,0.4c-0.2,0.1-0.7,0.5-0.9,0.6c-0.1,0.1-0.2,0.1-0.3,0.1
			c-3.4,10.8-1.8,15.6-1.1,17.8c-1.9,2.4-3.2,3.8-3.9,6c0,0,0,0,0,0c0,0.1,0,0.2-0.1,0.2c-1.8,5.7-1.1,10.5-1.8,15.3
			c0.7,0.3,3.2,1,4.8,0.6c0.2-0.1,0-4,0.7-5.8c0.9-2.4,2.4-4.5,3.1-8.8c0,0,0,0,0,0c0,0,0-0.1,0-0.1c0,0,0-0.1,0-0.1c0,0,0,0,0,0
			c0.1-0.6,0.1-1.3,0.1-2.1c0-0.2-0.7,0.3-1.1,0.9c0.4-1.8,1.3-2.2,2.1-3.3c0.3-0.5,0.6-1.2,0.7-2.1c4.1-2.8,5.6-6.2,6.5-9.8
			c0.6-2.5,1.5-6.5,2.5-7.6c-0.3,1-0.5,1.9-0.6,2.7c-0.7,3.6-0.7,6.4-2,9.4c1,2.7,2,4,2.1,7.8c-2.1,0-3.3,1.7-3.7,3.3c0,0,0,0,0,0v0
			c0,0,0.1,0,0.1,0c0.1,0,0.2,0,0.3,0.1c1.4,0.3,4.1,0.6,8.4,0c0.1-0.6,0.3-1.1,0.5-1.6c0.3-0.8,0.5-1.6,0.7-2.3
			c0.2-1.3,0.1-2.5,0-3.3C145.8,103.7,144.5,96.3,143.5,90.5z"/>
		<path class="st6" d="M145.3,68.7c-4.4-2.1-9.4-1.9-14.1-0.7c-1,0.2-1.9,0.5-3,0.1c-2.3-0.8-4-1.9-4.7-2.9
			c-0.1-0.1-0.1-0.1-0.1-0.2c-0.1,0.2-0.3,0.4-0.4,0.6c0.3,2.3-0.5,4-1.5,5.3c1,1.2,2.7,2.9,3.7,3.5c1.1,0.6,1.8,0.7,3.5,0.4
			c-0.7,0.7-1.1,1-2,1.4c0.1,0.8,0.2,2.1,0.5,3.5c0.3,0.3,1.2,0.8,2.4,1.4c1.5,0.7,3.3,1.4,4.6,1.7c2.3,0.5,7,0,8.3-0.1c0,0,0,0,0,0
			c0,0,0,0,0.1,0c-0.2-4.9,1.1-7.5,2.1-9.5C145.5,71.4,145.5,69.6,145.3,68.7z"/>
		<path class="st6" d="M129.3,50.1c0.1,1.3,0.5,2.1,1.1,3.1c0.3,0.2,0.5,0.3,0.8,0.4c1.1,0.3,3.2,0.3,4.3,0l0,0
			c0.7-0.1,1.5-1.3,1.7-2.3c0.2-1.2,0.5-2.1,0.5-2.9c0.1-0.8,0.2-2.5,0.2-2.9c0.1-0.8,0-1.9-0.1-2.6c0-0.3-0.1-0.6-0.1-0.7
			c-0.2-0.5-1.4-1.5-4.5-1.5c-3.2,0-4.1,1-4.2,1.5c0,0.1,0,0.3-0.1,0.6c-0.1,0.7-0.2,1.7-0.2,2.2c0,0,0,0.9,0.1,2.4
			C129,48.3,129.2,48.9,129.3,50.1z"/>
		<path class="st6" d="M121.3,133.1c0.4,0.1,0.7,0.6,0.8,0.3c0.2-0.5-0.4-1.5-0.5-2.2c0-0.1,0,0,0-0.1c-0.5-0.5-4.1-0.5-3.8-0.3
			c-0.4,0.8-1.1,0.6-1.3,2.1c-0.1,0.8,0.8,0.1,1.7,0.1c-1.6,1-3.4,2.4-3.7,3.6c-0.4,1.6,0.2,2.1,2,3h0c1.5,0.3,3.3,0.4,4.7,0.3h0
			c1.6-0.3,1.9-1,1.4-2.1C121.9,136.2,121.5,134.2,121.3,133.1z"/>
		<path class="st6" d="M119.9,84.8c-0.3,1.7,0.5,2.5,1.9,3.5c0.7,0.5,0,0.5,0.5,0.8c0.6,0.3,1.2,0.5,1.8,0.2
			c0.2-0.1,0.4-0.4,0.6-0.5c0.2-0.1,1-0.8,1.2-1s0.7-0.7,0.9-0.9c0.3-0.3,0.6-0.8,0.7-1c0.1-0.6-0.8-1.2-1.4-1.8c-1-1-2.5-1.4-4-1.4
			c0,0,0,0,0,0c-2.5-2.7-3.5-5.2-4.3-7c-0.9-2.2-2-3.4-4-5c1.1,0.4,1.9,0.8,2.4,1.1c0.5,0.4,1.3,0.4,2,0.2c2.5-0.8,3.8-4.4,4-6.6
			c0.2-0.3,0.6-1.1,0.8-1.4c0,0,0,0,0.1,0.1c0.1,0.1,0.4,0.3,0.9,0.6c0.8,0.6,2.1,1.5,2.9,1.9c1.4,0.7,2.3,0.8,5.5-0.1
			c2.2-0.6,4.9-0.8,6.9-0.8c2.1,0,3.8,0.5,5.6,1.3c0.8,0.4,2.3,1.3,2.6-0.3c0.1-2-0.6-4-1.7-5.4c-0.1,0-0.1-0.1-0.2-0.1
			c-0.2-0.3-2.1-1.5-2.7-1.8c-0.1-0.1-0.3-0.1-0.4-0.2c0,0-0.1,0-0.1,0c0,0-0.1,0-0.1,0c-0.2,0-0.4-0.1-0.8-0.3l-0.1-0.1
			c-0.2-0.1-0.4-0.2-0.6-0.2c-0.2,0-0.4-0.1-0.6,0c-0.3,0-0.5,0.1-0.7,0.1c-0.7,0.1-1.2,0.3-1.7,0.4c-0.7,0.2-1.3,0.4-2.1,0.4
			c-0.4,0-0.9-0.1-1.5-0.2c-0.7-0.2-1.3-0.3-1.7-0.4c-1.3-0.3-2.1-0.6-3.7-0.5c-0.3,0-0.7,0.1-1.1,0.1c-1.1,0.1-2.3,0.1-3.3-0.1
			c-0.8-0.1-1.5-0.3-2-0.5c-0.2-0.1-0.3-0.1-0.4-0.2c-1.1-0.3-2.1-0.3-3.8,0c-2.6,0.5-5.1,2.3-5.1,5c0,0.2,1.8,0.7,2.3,2.9
			c-0.9-1.2-2.4-2.6-4.2-1.4c-1.9,1.2-0.9,4-3.5,7c-0.9,1-0.7,2.2,0.2,4.5c1.5,3.6,8.3,5.6,12.3,8.9
			C119.9,84.6,119.9,84.7,119.9,84.8z"/>
	</g>
	<g>
		<path class="st7" d="M119.7,72.6c-0.6,0.4-1.2,0.7-1.6,0.8c1.5,2.3,0.7,4,4.5,8.6l0,0c0.5,0,1.7,0.1,2.7,0.5
			c0-0.4,0.1-0.8,0.2-1.4h0.2c-0.4-1.9-0.5-2.9-0.8-4.3C123,75.7,121.3,74.5,119.7,72.6z"/>
		<path class="st7" d="M120.7,89.3c0-0.1,0-0.3,0-0.4c0-0.1,0.1-0.3,0.1-0.3c0-0.1-0.5-0.4-0.6-0.5c-0.6-0.6-1.1-1.2-1.2-2.1
			c0-0.2,0.1-0.6,0-0.7c-0.1-0.1-0.3-0.3-0.4-0.4c-0.4-0.3-0.8-0.6-1.2-0.8c-0.7-0.5-1.5-0.9-2.3-1.3c-2.9-1.4-6.3-2.5-8.4-5.2
			c-0.6-0.8-1-1.6-1.3-2.5c-0.4-0.9-0.9-2.1-0.6-3.1c-0.9,0.4-1.8,0.7-2.7,1c-1.1,0.5-2.2,1-3.3,1.5c-2.8,1.4-5.6,2.8-8.4,4.2
			c-1.6,0.8-3.1,1.7-4.7,2.5c1.5,1.6,2.4,3.8,2.9,5.9c0.6,2.2,0.7,4.4,1.1,6.5c0.4,2.1,1.1,4.1,2.4,5.7c1.4,1.7,3.4,2.8,5.5,3.4
			c2.3,0.6,4.7,0.6,7,0.6c2.3,0,4.6,0.3,6.7,1.2c2.1,0.9,3.9,2.4,5.3,4.3c0.3,0.4,0.6,0.8,1.1,1.1c0.2,0.2,0.4,0.3,0.7,0.4
			c0.1,0,0.2,0.1,0.3,0.1c0.2,0,0.2-0.1,0.3-0.2c0.4-0.5,0.7-0.9,1.1-1.4c0.2-0.2,0.4-0.5,0.6-0.7c0.1-0.1,0.2-0.2,0.3-0.4
			c0.1-0.2,0-0.4-0.1-0.7c-1.2-5.7,0.2-11.4,2.1-16.8C122.2,90.3,121.2,89.9,120.7,89.3z"/>
		<path class="st7" d="M106.6,69.3c0.3-0.6,0.6-1.4,0.9-2.7c1-3.6,3-3.7,3.9-3.8c0.1-1.2,0.5-2.2,1-3c-9.1,2.5-18.5,5.7-28.7,12
			c-4.3,2.6-13.2,8.6-15,19.9c2.5-2.8,6.4-5.9,11.2-9v0c0.1,0,0.1-0.1,0.2-0.1c1.4-0.9,2.8-1.7,4.3-2.6c0,0,0,0,0,0
			c2.3-1.3,4.8-2.6,7.2-3.8C98.7,72.8,105.4,69.9,106.6,69.3z"/>
		<path class="st7" d="M152.7,136.9c-0.1-0.1-0.2-0.2-0.3-0.3c-0.8-0.6-4.2-1.2-5.7-2.4c-1.4-1.1-5.4-2.8-5.4-3.3c0,0,0-0.1,0-0.1
			c-0.1-1.5-0.2-5.8,0-8.1c0,0,0,0,0-0.1c0-0.4,0.1-0.7,0.1-0.9c0,0,0,0,0-0.1s0,0,0-0.1c0.3-1.9,0.7-4.4,0.8-5.1
			c0.1-0.6,0.4-1.1,0.2-1.2c0,0,0,0,0,0c-0.1,0-0.2,0-0.5,0c-1,0.2-4.7,0.8-7.5,0.6c-1.9-0.1-2.7-0.4-3-0.6c0,0-0.1,0-0.1,0
			c-0.1,0-0.1,0-0.2,0c-0.4,0.6,0.1,2.8,0.6,4.9c0.3,1.1,0.8,2,1.3,3.1c0.4,0.9,0.7,1.9,0.9,3.3c0,0.2,0,0.3,0.1,0.5
			c0.2,2.9,0.3,3.7-0.2,5.1c-0.1,0.3-0.2,0.6-0.4,0.9c-0.6,1.2-0.9,2.2-0.5,3c0,0,0,0.1,0.1,0.1c0.3,0.4,0.8,0.7,1.7,0.8
			c0.3,0,0.6,0.1,0.9,0.1c3.5,0,5.3,0,8.8,0.4c2.6,0.4,4,0.6,5.3,0.5c0.4,0,0.9-0.1,1.4-0.1c1.2-0.2,1.8-0.5,1.9-0.9
			C152.8,137.1,152.8,137,152.7,136.9z"/>
		<path class="st7" d="M140.1,58.1c0.7-0.1,1.2,0.3,1.6,0.5c0.3,0.2,0.8,0.2,1.2,0.4c0,0,0,0,0.1,0c0,0,0,0,0,0
			c0.8,0.4,1.8,0.9,2.4,1.5l0,0c0,0,0,0,0.1,0c1-0.1,1.8-0.2,2.3-0.2c-0.2-0.4-0.3-1.4-1.9-0.6c-0.6-0.7-0.8-1.4-2.1-0.9
			c-0.1-0.2-0.2-0.3-0.3-0.5c0,0,0,0-0.1-0.1c-0.1-0.2-0.3-0.4-0.5-0.6c-0.9-1-2.7-1.7-4.2-0.8c-0.8,0.5-2.5,1.5-3.6,1.3
			c-1-0.2-4.4-1-6.4-1.8c-0.1,0-0.1,0-0.2-0.1c-0.7-0.6-1.6-1.1-3.5-1.3c-0.8-0.1-1.3,0.6-1.9,1c0.3,0.3,0.6,0.8,0.7,1.2
			c-0.5-0.6-1.5-1.4-2.4-1.5c-0.8-0.2-1.4,0.4-2.3,0.9c1.1,0,2,0.2,2.8,0.5c0,0,0,0,0,0c0,0,0,0,0,0c0.2,0.1,0.4,0.2,0.6,0.3
			c1.8,0.7,4,0.5,4.9,0.4c0.1,0,0.4,0,0.7-0.1l0,0c0.1,0,0.2,0,0.2,0c2.5-0.1,3.2,0.4,5.6,1C136.6,59.4,137.2,58.5,140.1,58.1z"/>
	</g>
	<path d="M152.8,135.7c-1.5-0.8-3.1-1.2-4.6-1.9c-1-0.5-2.1-1.1-3-1.7c-0.5-0.3-1-0.7-1.5-1c-0.4-0.2-0.9-0.5-1.2-0.8
		c-0.4-0.5-0.3-1.3-0.3-1.8c0-1.1,0-2.2,0-3.4c0-2.3,0.3-4.4,0.8-6.6c0.2-1,0.6-2.1,0.5-3.2c0-0.8-0.5-0.9-1.2-0.8
		c0.1-0.6,0.2-1.2,0.4-1.8c0.2-0.6,0.5-1.1,0.7-1.7c0.3-0.9,0.4-1.8,0.3-2.7c0-0.2-0.1-0.5-0.1-0.7c0-0.2,0-0.2,0.2-0.4
		c0.5-0.7,0.8-1.4,1.1-2.1c1.2-3.3,0.9-7,0.5-10.4c-0.2-1.5-0.5-2.9-0.8-4.4c1,0.5,2,0.8,3,0.9c0.2,0,0.8,0.1,1-0.1
		c1.5-0.8,2.4-2.5,3.1-4c0.1-0.2,0.2-0.4,0.2-0.6c0.1-0.2,0.3-0.4,0.5-0.6c0.7-0.8,1.4-1.7,1.9-2.7c0.9-1.8,1.4-4,0.6-6
		c-0.2-0.5-0.5-0.9-0.8-1.3c-0.2-0.2-0.3-0.4-0.5-0.6c-0.1-0.1-0.3-0.2-0.3-0.3c-0.2-0.1-0.2-0.2-0.1-0.3c0-0.1,0.1-0.2,0.1-0.4
		c0.3-1.1,0.2-2.3-0.2-3.4c-0.2-0.4-0.3-0.8-0.6-1.1c-0.1-0.1-0.2-0.2-0.3-0.3c0-0.2,0.2-0.6,0.2-0.7c0.2-0.9,0.3-1.8,0.2-2.8
		c-0.2-1.1-0.6-2.2-1.3-3.1c-0.4-0.5-0.8-0.9-1.2-1.2c-0.5-0.4-1.3-0.6-1.6-1.1c-0.5-0.7-0.9-1.4-1.9-1.3c-0.1,0-0.2,0-0.3,0
		c-0.2,0-0.1,0-0.3-0.2c-0.1-0.1-0.2-0.3-0.3-0.4c-0.3-0.3-0.6-0.4-1-0.4c-0.1,0-0.5,0.2-0.6,0.1c-0.1,0-0.2-0.3-0.2-0.4
		c-0.3-0.5-0.9-0.9-1.4-1.2c-0.5-0.3-1-0.5-1.6-0.6c-0.3,0-0.6-0.1-0.9,0c-0.2,0-0.7,0.2-0.8,0.1c-0.2-0.2-0.1-1-0.1-1.2
		c0-0.6,0-1.3-0.1-1.9c0-1.1,0-2.1,0.1-3.1c0.2-2.1,0.5-4.1,0.5-6.2c0-0.9-0.1-1.9-0.6-2.7c-0.4-0.5-1-0.8-1.6-1.1
		c-1.6-0.6-3.3-0.7-5-0.5c-1.3,0.1-3,0.3-4,1.3c-0.4,0.4-0.5,1-0.5,1.5c-0.2,1-0.2,2-0.3,2.9c-0.1,1.8,0.1,3.6,0.5,5.4
		c0.1,0.5,0,1-0.1,1.5c0,0.4-0.1,0.7-0.2,1.1c0,0.3,0,0.8-0.2,1c-0.2,0.3-0.8,0.4-1.2,0.5c-0.4,0.1-0.5,0.1-0.9,0
		c-0.4-0.1-0.7-0.2-1.1-0.1c-0.5,0.1-0.9,0.5-1.3,0.7c-0.2,0.2-0.4,0.4-0.7,0.3c-0.2,0-0.4-0.2-0.6-0.2c-0.4-0.1-0.9-0.3-1.4-0.1
		c-0.6,0.2-1,0.7-1.6,0.9c-0.1,0.1-0.2,0.2-0.4,0.2c-0.2,0.1-0.1,0-0.4,0c-0.2,0-0.4-0.1-0.6-0.2c-0.5,0-1.1,0.2-1.6,0.4
		c-0.5,0.3-1,0.6-1.5,0.9c-0.5,0.4-1.3,0.5-2,0.7c-4.9,1.3-9.7,3-14.4,4.8c-2.7,1-5.2,2.1-7.8,3.5c-3.9,2.1-7.9,4.1-11.5,6.8
		c-3.8,2.9-7,6.7-9.2,11c-1,1.9-1.7,4-2.2,6.1c-0.1,0.5-0.8,3.8,0.4,3.6c0.4,0,0.8-0.6,1.1-0.9c0.4-0.5,0.9-0.9,1.4-1.3
		c1.3-1.2,2.7-2.3,4.2-3.5c1.5-1.1,2.9-2.2,4.5-3.3c1-0.6,2-1.1,3-1.7c0.2-0.1,0.4-0.3,0.7-0.4c0.2-0.1,0.4-0.3,0.7-0.4
		c0.1-0.1,0.7-0.6,0.9-0.5c0.3,0,0.8,0.8,0.9,1c0.3,0.4,0.6,0.8,0.8,1.3c1.1,1.9,1.5,4.2,1.9,6.3c0.4,2.3,0.5,4.5,1.5,6.6
		c0.8,1.7,2,3.2,3.5,4.3c1.5,1.1,3.2,1.9,5,2.4c2.1,0.6,4.2,0.6,6.4,0.7c3.6,0.2,7.2,0.8,9.9,3.3c1.3,1.2,2.2,3.1,4,3.8
		c-1.7,3.1-1.6,6.6-1.7,10c0,1.6,0,3.2-0.1,4.9c0,1.1,0,2.3-0.2,3.5c-0.1,0.7-0.6,1.2-0.8,1.9c-0.2,0.8-0.4,1.5-0.9,2.2
		c-0.4,0.7-0.9,1.4-1.1,2.2c-0.3,1.3-0.1,2.7,1.1,3.6c1.1,0.7,2.4,1.1,3.6,1.3c1.4,0.2,3,0,4.4-0.3c0.7-0.2,1.3-0.5,1.5-1.3
		c0.2-0.9-0.1-2-0.3-2.9c-0.2-0.6-0.3-1.2-0.4-1.8c-0.1-0.6,0.2-1.1,0.2-1.6c0-0.3-0.1-0.6-0.2-0.9c-0.1-0.2-0.2-0.5-0.2-0.7
		c0-0.1,0.1-0.2,0.1-0.3c0.1-0.3,0.2-0.6,0.2-0.9c0.2-1,0.1-2.1,0.2-3.2c0.1-0.7,0.1-1.3,0.3-2c0.2-0.6,0.5-1.2,0.7-1.8
		c0.4-0.9,0.7-1.8,1.2-2.6c0.4-0.7,0.8-1.5,1-2.2c0.4-1.1,0.6-2.4,0.8-3.6c0-0.4,0.1-0.8,0.1-1.2c0-0.2,0-0.4,0-0.6
		c0-0.2-0.1-0.7,0-0.9c0-0.1,0.2-0.3,0.3-0.4c0.2-0.2,0.4-0.5,0.5-0.7c0.2-0.3,0.3-0.6,0.4-0.9c0.1-0.2,0.1-0.7,0.2-0.8
		c0.1-0.1,0.4-0.3,0.6-0.3c1-0.7,1.8-1.5,2.6-2.3c0.6-0.7,1-1.3,1.5-2.1c0.3,1,0.7,2,0.9,3c0.1,0.4,0.2,0.9,0.2,1.3
		c0,0.2,0,0.4,0,0.6c0,0.4-0.1,0.4-0.4,0.6c-1.2,1-2.4,2.2-2.8,3.8c-1.5-0.7-1.4,1.1-1.4,2c0.1,1.6,0.3,3.3,0.7,4.8
		c0.2,0.9,0.6,1.7,0.9,2.5c0.4,1,0.6,1.9,0.9,2.9c0.2,1.1,0.4,2.2,0.2,3.3c-0.1,1-0.4,2.1-0.8,3c-0.4,1.1-0.9,2.2-0.5,3.4
		c0.4,1.6,1.9,1.9,3.3,2.1c3.4,0.4,6.9-0.1,10.4,0.3c2.3,0.3,4.8,0.8,7,0c0.7-0.2,1.6-0.7,1.8-1.4
		C154,136.6,153.4,136.1,152.8,135.7z M122.3,89.1c-0.2-0.1-0.2-0.2-0.2-0.3c-0.1-0.3-0.2-0.4-0.4-0.5c-0.5-0.4-1.1-0.8-1.4-1.3
		c-0.3-0.5-0.5-1-0.4-1.6c0-0.2,0-0.3,0.1-0.5c0-0.2,0.1-0.2-0.1-0.3c-0.2-0.3-0.6-0.5-0.8-0.6c-2.3-1.6-4.8-2.8-7.2-4.2
		c-1-0.6-2.1-1.3-3-2.2c-0.9-0.9-1.4-2-1.7-3.2c-0.3-1.1-0.4-2.1,0.3-3.1c1-1.2,1.6-2.5,2-4c0.3-1.2,0.6-2.5,1.9-3.1
		c1.6-0.8,3,0.3,3.9,1.6c-0.3-1.1-1-2-2-2.6c-0.4-0.2-0.4-0.3-0.3-0.8c0.1-0.7,0.4-1.3,0.8-1.9c0.8-1.2,2.1-1.9,3.5-2.4
		c1.4-0.4,3-0.6,4.4-0.3c0.3,0.1,0.6,0.2,0.9,0.4c0.4,0.2,0.9,0.2,1.3,0.3c0.9,0.1,1.9,0.2,2.8,0.2c0.9,0,1.8-0.2,2.7-0.2
		c0.7,0,1.4,0.1,2.1,0.3c1.6,0.4,3.2,1,4.8,0.8c0.8-0.1,1.5-0.4,2.3-0.6c0.8-0.2,1.7-0.5,2.5-0.2c1.1,0.4,2.1,0.8,3.1,1.4
		c0.4,0.3,0.9,0.6,1.3,0.9c0.5,0.4,0.8,1,1.1,1.5c0.4,0.8,0.6,1.6,0.8,2.4c0.1,0.7,0.3,1.7-0.2,2.3c-0.7,0.8-2.2-0.3-2.9-0.6
		c-3.3-1.3-7-1.3-10.5-0.6c-1.5,0.3-3,0.9-4.6,1c-1,0.1-1.9-0.3-2.8-0.8c-0.7-0.4-1.3-0.9-2-1.3c-0.3-0.2-0.7-0.5-1-0.7
		c-0.2-0.1-0.4-0.4-0.5-0.3c-0.2,0.1-0.4,0.7-0.5,0.9c-0.2,0.3-0.3,0.5-0.3,0.8c-0.1,0.6-0.2,1.2-0.4,1.8c-0.7,2.2-3,5.8-5.7,4.1
		c-0.7-0.4-1.4-0.7-2.2-1c1.5,1.2,2.8,2.5,3.6,4.2c0.8,1.6,1.4,3.2,2.3,4.7c0.6,1,1.3,1.9,2,2.7c0.2,0.3,0.3,0.4,0.6,0.4
		c0.2,0,0.4,0,0.7,0c0.5,0.1,1.1,0.2,1.6,0.4c1,0.4,1.7,1.1,2.4,1.8c0.2,0.2,0.6,0.6,0.6,1c0,0.4-0.4,0.8-0.7,1.1
		c-0.5,0.6-1.1,1.1-1.8,1.6c-0.3,0.2-0.6,0.6-1,0.7C123.6,89.6,122.9,89.3,122.3,89.1z M122.6,89.5c-0.8,0-1.1-0.7-1.7-0.9
		C121.1,88.4,122.4,89.4,122.6,89.5z M125.4,81.1c-0.1,0.5-0.1,0.9-0.2,1.4c-0.7-0.2-1.4-0.4-2.1-0.5c-0.2,0-0.4,0-0.6-0.1
		c-0.3-0.1-0.7-0.8-0.8-1.1c-0.7-1-1.4-2-1.9-3.1c-0.6-1.4-0.9-3.1-1.8-4.4c0.5-0.2,0.9-0.5,1.4-0.7c0.2-0.1,0.1-0.1,0.3,0
		c0.1,0.1,0.2,0.2,0.3,0.4c0.2,0.2,0.4,0.4,0.7,0.7c0.8,0.8,1.7,1.5,2.6,2.1c0.4,0.3,1,0.5,1.3,0.8c0.2,0.3,0.3,0.9,0.3,1.3
		c0.2,1,0.4,2.1,0.6,3.1C125.5,81.1,125.5,81.1,125.4,81.1z M127.2,79.8c-0.2-1-0.4-2.1-0.5-3.2c0-0.3-0.1-0.3,0.2-0.5
		c0.2-0.1,0.4-0.2,0.6-0.3c0.4-0.3,0.8-0.6,1.1-1c-1.2,0.2-2.2,0.2-3.3-0.3c-1.1-0.5-2-1.5-2.8-2.3c-0.2-0.2-0.4-0.5-0.6-0.7
		c-0.1-0.1-0.3-0.3-0.3-0.4c-0.1-0.2-0.1-0.2,0-0.4c0.4-0.5,0.7-1,0.9-1.6c0.2-0.6,0.4-1.3,0.5-1.9c0-0.3,0-0.7,0-1
		c0-0.2-0.1-0.4,0-0.6c0.1-0.2,0.3-0.4,0.4-0.6c0.9,1.3,2.6,2.2,4.1,2.8c1,0.4,2,0.6,3.1,0.3c1-0.2,2.1-0.5,3.1-0.7
		c2.1-0.4,4.3-0.5,6.4-0.3c1,0.1,2.1,0.3,3.1,0.6c0.5,0.1,1,0.3,1.4,0.5c0.2,0.1,0.5,0.2,0.7,0.3c0.2,0.1,0.2,0.2,0.2,0.5
		c0.2,1.7-0.4,3.3-1.1,4.8c-0.6,1.2-1,2.4-1.3,3.7c-0.2,0.9-0.3,1.8-0.4,2.7c0,0.5,0,1,0,1.5c0,0.2,0.1,0.6,0,0.8
		c-0.1,0.2,0,0.1-0.2,0.1c-0.5,0.1-1.2,0.1-1.7,0.2c-0.8,0.1-1.6,0.1-2.4,0.1c-1.8,0.1-3.5,0-5.2-0.5c-1.1-0.3-2.2-0.8-3.3-1.3
		C128.9,80.8,127.9,80.4,127.2,79.8z M147.7,82.8c-0.6,0.3-1.3,0.2-1.9,0.2c-0.8-0.1-1.4,0-2,0.6c0.2-2.1,0.3-4.2,1-6.3
		c0.4,0.4,0.9,0.6,1.4,0.7c-0.5,1-0.5,2.1,0.2,3.1C146.7,81.6,147.5,82.1,147.7,82.8z M150.8,69.3c1,1.1,1.6,2.7,1.5,4.2
		c-0.1,0.8-0.2,1.4-0.8,1.8c-0.7,0.4-1.4,0.9-1.8,1.6c0.9-0.5,2.1-1.1,3.1-0.7c1,0.3,1.3,1.4,1.4,2.3c0.3,2.4-1.2,5-2.7,6.7
		c0-0.1-0.1-0.1-0.1-0.2c-0.2,0.8-0.4,1.6-0.8,2.4c-0.5,1-1.3,2.3-2.3,2.7c-1,0.4-2.3-0.2-3.1-0.7c-0.2-0.1-0.5-0.3-0.7-0.4
		c-0.2-0.2-0.2-0.4-0.3-0.7c-0.1-0.5-0.2-1.1-0.3-1.6c0-0.2,0-0.3,0-0.5c0-0.2-0.1-0.6,0-0.8c0.1-0.2,0.5-0.5,0.6-0.7
		c0.2-0.3,0.6-0.5,0.9-0.6c0.5-0.2,1.1-0.1,1.7-0.2c0.5,0,1-0.1,1.4-0.3c0.3-0.2,0.2-0.5,0.1-0.8c-0.2-0.6-0.5-1-0.9-1.4
		c-0.5-0.7-0.7-1.4-0.7-2.2c0-0.4,0-1.1,0.2-1.5c0.2-0.3,0.8-0.4,1.2-0.4c-0.6-0.1-1.2-0.2-1.8-0.4c-0.2-0.1-0.5-0.2-0.7-0.4
		c-0.1-0.1-0.3-0.2-0.4-0.3c-0.2-0.2-0.2-0.2-0.1-0.5c0.6-1.3,1.5-2.5,1.6-4c0.1-0.5,0-1.1,0-1.6c0-0.1-0.1-0.3-0.1-0.3
		c0.1-0.1,0.8-0.4,1-0.5c0.7-0.4,0.8-0.8,0.9-1.5c0.1-0.7,0-1.5-0.1-2.2c-0.4-1.6-1.4-3.1-2.6-4.2c2.2-0.2,4.1,1,5,3.1
		C151.8,65.9,151.5,67.7,150.8,69.3z M128.3,54.5c0.1-0.7,0.2-1.4,0.3-2.2c0.4,0.4,0.8,0.8,1.2,1.1c0.3,0.3,0.6,0.6,0.9,0.8
		c0.7,0.4,1.7,0.3,2.5,0.3c0.8,0,1.8,0.2,2.6-0.1c0.8-0.3,1.6-1.1,2.3-1.7c0.1,0.9,0.1,1.8,0.1,2.7c0,0.3,0,0.6,0,0.9
		c0,0.1,0,0.2,0,0.3c0,0.2,0,0.2-0.2,0.3c-0.6,0.3-1.2,0.8-1.9,0.9c-0.5,0.1-0.9,0-1.4-0.1c-1.2-0.3-2.5-0.6-3.7-1.1
		c-0.5-0.2-1.1-0.4-1.5-0.7c-0.3-0.2-0.5-0.6-0.7-0.9C128.5,54.9,128.2,54.6,128.3,54.5z M137.8,42.2c0.3,1.2,0.2,2.6,0.2,3.8
		c-0.1,1.3-0.2,2.6-0.4,3.8c-0.3,1.2-0.5,3.2-1.9,3.7c-1.2,0.4-2.8,0.3-4,0.1c-0.4-0.1-0.7-0.2-1-0.4c-0.3-0.2-0.5-0.7-0.6-1
		c-0.4-0.7-0.5-1.5-0.6-2.3c-0.1-0.7-0.3-1.4-0.3-2.1c-0.1-0.7-0.1-1.5-0.1-2.2c0-0.4,0-0.9,0.1-1.3c0.1-0.7,0.1-1.4,0.2-2
		c0.2-0.6,0.9-0.9,1.4-1.1c1.5-0.5,3.4-0.5,5-0.2C136.2,41.1,137.6,41.4,137.8,42.2z M121.5,55.9c0.9,0.2,1.9,0.9,2.4,1.5
		c-0.1-0.5-0.4-0.9-0.7-1.2c0.4-0.3,0.8-0.7,1.3-0.9c0.5-0.2,1.2-0.1,1.7,0c0.9,0.2,1.6,0.5,2.3,1c0.8,0.5,1.9,0.7,2.8,1
		c1,0.3,1.9,0.5,2.9,0.8c0.8,0.2,1.5,0.3,2.3,0.1c0.9-0.3,1.7-0.9,2.6-1.3c1-0.5,2.1-0.3,3.1,0.3c0.4,0.2,0.8,0.6,1.1,1
		c0.1,0.2,0.3,0.3,0.4,0.5c0,0.1,0.1,0.2,0.1,0.2c0,0.2,0.1,0.2,0.2,0.1c0.1,0,0.2-0.1,0.3-0.1c0.4-0.1,0.8,0,1.1,0.3
		c0.1,0.1,0.2,0.4,0.4,0.5c0,0,0.1,0.2,0.2,0.2c0.1,0,0.5-0.2,0.6-0.2c0.8-0.2,1,0.2,1.3,0.8c-0.5,0-0.9,0-1.4,0.1
		c-0.3,0-0.6,0.1-0.8,0.1c-0.2,0-0.3-0.2-0.5-0.3c-0.8-0.6-1.7-1.2-2.7-1.4c-0.4-0.1-0.8-0.4-1.2-0.5c-0.6-0.2-1.2-0.2-1.8,0
		c-0.9,0.2-1.7,0.4-2.5,0.6c-1.9,0.5-3.7-0.3-5.6-0.8c-1.7-0.4-3.4,0-5.1,0c-1.2,0-2.5,0-3.6-0.5c-1.1-0.5-2.2-0.8-3.5-0.8
		C120,56.3,120.6,55.7,121.5,55.9z M68.7,91.7c1.1-6.9,5.1-12.6,10.5-16.8c2.3-1.8,4.7-3.3,7.2-4.7c4-2.3,8.3-4.3,12.6-6
		c4.4-1.7,8.9-3.1,13.4-4.4c-0.6,0.8-0.9,1.7-1,2.7c0,0.4,0,0.4-0.4,0.4c-0.2,0-0.4,0.1-0.5,0.1c-1.2,0.3-2,1.3-2.5,2.4
		c-0.4,0.9-0.6,2-1,2.9c-0.1,0.3-0.2,0.7-0.4,1c-0.1,0.1-0.2,0.2-0.4,0.2c-1.1,0.5-2.1,0.9-3.2,1.4c-3.9,1.7-7.7,3.6-11.5,5.5
		c-4.2,2.1-8.2,4.2-12.1,6.7C75.6,85.5,71.8,88.3,68.7,91.7z M116.9,109.2c-1.8-2.6-4.3-4.4-7.3-5.3c-3.3-0.9-6.6-0.3-10-0.8
		c-3-0.4-5.9-1.6-7.8-4.1c-1.9-2.5-2.2-5.5-2.6-8.5c-0.4-3.3-1.3-6.9-3.6-9.4c5.2-2.8,10.5-5.7,15.9-8.1c1-0.5,2.1-0.8,3.2-1.2
		c-0.3,1,0.2,2.3,0.6,3.2c0.4,0.9,0.8,1.8,1.4,2.5c1.1,1.4,2.8,2.4,4.4,3.2c1.8,0.9,3.6,1.6,5.3,2.6c0.4,0.2,0.8,0.5,1.2,0.7
		c0.4,0.3,1,0.6,1.3,0.9c0.2,0.2,0.1,0.5,0.1,0.8c0,0.3,0.1,0.6,0.2,0.8c0.2,0.4,0.5,0.8,0.8,1.1c0.1,0.2,0.8,0.6,0.8,0.8
		c0,0.1-0.1,0.3-0.1,0.5c0,0.2,0,0.3,0.2,0.5c0.6,0.5,1.4,0.8,2.1,0.8c-1,2.9-1.9,5.8-2.3,8.9c-0.2,1.6-0.3,3.2-0.2,4.8
		c0.1,0.8,0.1,1.6,0.3,2.4c0.1,0.4,0.3,0.8,0.2,1.2c0,0.3-0.5,0.7-0.7,1c-0.3,0.4-0.6,0.7-0.9,1c-0.2,0.2-0.5,0.9-0.8,0.9
		c-0.3,0-0.8-0.3-1-0.5C117.5,109.8,117.2,109.6,116.9,109.2z M117.8,130.8c-0.1-0.1,1-0.2,1.1-0.2c0.7,0,1.4,0,2.1,0.2
		c0.2,0,0.5,0.1,0.6,0.2c0.2,0.2,0.2,0.7,0.2,1c0.1,0.3,0.4,0.9,0.3,1.3c-0.2,0.4-0.6-0.1-0.8-0.2c0.2,1.5,0.6,3.1,1.2,4.5
		c0.2,0.5,0.5,1.1,0.2,1.6c-0.3,0.5-1,0.7-1.5,0.7c-0.9,0.1-1.8,0-2.7,0c-0.8-0.1-1.7-0.1-2.4-0.5c-1-0.6-1.8-1.2-1.6-2.5
		c0.3-1.7,2.4-2.9,3.7-3.8c-0.5,0-1,0.3-1.4,0.3c-0.5,0-0.3-0.6-0.2-0.9C116.8,131.7,117.4,131.4,117.8,130.8z M136.2,111.4
		c0-1.3-0.2-2.6-0.6-3.9c-0.3-1-0.7-2-1.1-2.9c-0.1-0.3-0.2-0.5-0.3-0.8c-0.1-0.3,0.1-0.7,0.2-1c0.2-0.7,0.4-1.3,0.6-2
		c0.3-1.3,0.5-2.7,0.7-4c0.2-1.8,0.6-3.5,1-5.3c-0.4,0.4-0.7,1.1-0.9,1.6c-0.3,0.8-0.6,1.7-0.8,2.5c-0.4,1.7-0.8,3.4-1.3,5
		c-0.5,1.7-1.3,3.3-2.3,4.7c-0.6,0.8-1.2,1.5-1.9,2.1c-0.4,0.3-0.7,0.6-1.1,0.9c-0.2,0.1-0.6,0.3-0.7,0.5c-0.1,0.2-0.1,0.6-0.1,0.8
		c-0.2,0.9-0.7,1.5-1.3,2.2c-0.7,0.7-1.1,1.4-1.3,2.4c0.2-0.3,0.4-0.5,0.7-0.8c0.1,0,0.2-0.2,0.3-0.2c0.2,0,0-0.1,0.1,0.1
		c0.1,0.3,0,0.9,0,1.2c0,0.3,0,0.6-0.1,0.9c-0.2,1.5-0.6,3-1.2,4.4c-0.8,2.2-2.1,4.1-2.3,6.4c-0.1,1.1-0.1,2.2-0.2,3.3
		c0,0.3,0,0.5-0.2,0.6c-0.6,0.2-1.5,0.1-2.1,0c-0.6-0.1-1.3-0.2-1.9-0.4c-0.2,0-0.5-0.1-0.6-0.2c-0.2-0.2,0-0.8,0-1
		c0.2-1.6,0.2-3.2,0.3-4.8c0.2-3.3,0.4-6.8,1.6-10c0.5-1.3,1.3-2.5,2.1-3.6c0.5-0.6,1.1-1.3,1.6-2c0.2-0.3,0-0.5-0.1-0.8
		c-1-3.5-0.9-7.1-0.3-10.6c0.3-1.6,0.6-3.2,1.1-4.7c0.1-0.4,0.3-0.9,0.4-1.3c0.1-0.2,0.1-0.5,0.3-0.6c0.1-0.1,0.3-0.1,0.4-0.2
		c0.5-0.3,1-0.6,1.4-1c0.7-0.6,1.3-1.3,2-2c0.5-0.5,0.7-0.9,0.3-1.5c-0.4-0.6-1-0.9-1.4-1.5c-0.1-0.2-0.1-0.2,0-0.4
		c0.1-0.2,0.1-0.2,0.1-0.4c0.1-0.5,0.1-0.9,0.2-1.4c0.3,0.3,0.7,0.4,1.1,0.5c1.1,0.4,2.3,0.7,3.4,1c2.6,0.6,5.3,0.7,7.9,0.5
		c0.8,0,1.7-0.1,2.5-0.2c-0.2,1.3,0.1,2.6,0.3,3.8c0.2,1.3,0.6,2.6,0.8,3.9c0.5,2.8,1,5.6,1,8.5c0,2.5-0.3,5.2-1.7,7.2
		c-0.1,0.2-0.5,0.5-0.5,0.7c-0.1,0.2,0.1,0.7,0.1,1c0.1,0.8,0,1.6-0.1,2.4c-0.1,0.8-0.4,1.6-0.7,2.3c-0.1,0.4-0.2,0.8-0.4,1.2
		c-0.1,0.2,0,0.1-0.1,0.2c-0.1,0-0.2,0-0.3,0c-0.3,0-0.5,0.1-0.8,0.1c-2.5,0.3-5.1,0.4-7.6-0.2C133,112.9,134.3,111.3,136.2,111.4z
		 M131.7,120.3c-0.2-0.9-0.5-1.8-0.6-2.7c-0.1-0.6-0.3-1.3-0.1-1.9c0.1-0.5,0.5-0.2,0.9-0.1c0.6,0.2,1.2,0.3,1.7,0.3
		c1.6,0.2,3.3,0.1,4.9,0c0.7-0.1,1.4-0.2,2.2-0.3c0.5-0.1,0.9-0.2,1.4-0.3c0.8-0.1,0.2,0.9,0.1,1.3c-0.1,0.5-0.2,1.1-0.3,1.6
		c-0.2,1.5-0.5,3-0.7,4.5c-0.2,2.6-0.2,5.3,0,7.9c0,0.4,0.1,0.5,0.4,0.7c0.4,0.3,0.8,0.5,1.3,0.7c1.1,0.6,2.2,1.1,3.2,1.8
		c0.5,0.3,0.9,0.6,1.3,0.9c0.6,0.3,1.2,0.5,1.9,0.8c0.6,0.2,1.3,0.4,1.9,0.6c0.4,0.1,0.9,0.3,1.3,0.6c1.2,1.1-2.3,1.5-2.8,1.5
		c-1.3,0.1-2.5-0.1-3.8-0.3c-1.7-0.2-3.5-0.5-5.3-0.6c-1.6-0.1-3.3-0.1-4.9-0.1c-1.3,0-3.3-0.1-3.2-1.9c0.1-1.5,1.1-2.7,1.4-4.1
		c0.2-1.2,0.1-2.5-0.1-3.7c-0.1-1.7-0.5-3.2-1.2-4.8C132.3,122,131.9,121.2,131.7,120.3z"/>
	<g>
		<path class="st8" d="M136.6,134.2c-1.1,0-2.6-0.4-3.6-0.8l-0.9,1.2l0.1,2.4c0,0,5.2,1.5,4.6,0.3
			C136.2,136.1,136.6,134.2,136.6,134.2z"/>
		<path class="st8" d="M148.8,134.8c-1,0-0.3,0.2,0.4,1.2c0.8,1,0.2,2-0.8,2.3l2.7,0.2l2.3-1.3C153.6,137.2,149.9,134.8,148.8,134.8
			z"/>
		<path class="st8" d="M142.1,117.3c-1.7,0.6-4.3,0.8-6.1,0.9c-1.8,0.1-3.8-0.1-5.1-0.6l0,1.4c0,0,1.3,0.5,5.5,0.6
			c3.6,0.1,5.8-0.8,5.8-0.8l0.5-0.6C142.6,118.2,143.7,116.8,142.1,117.3z"/>
		<path class="st8" d="M141.9,120.4c-1.7,0.6-4,0.6-5.8,0.7c-1.8,0.1-3.8-0.1-5.1-0.6l0.4,1.5c0,0,0.4,0.3,4.6,0.3
			c3.6,0.1,5.9-0.7,5.9-0.7l0.3-0.5C142.2,121.2,142.6,120.2,141.9,120.4z"/>
	</g>
	<g>
		<path class="st9" d="M106,74c0.2-0.3-0.3-1.9,0.5-3.3c1.1-1.9,3.2-2.7,0.2-1.5c-5.2,2.1-18.6,8.8-22.4,10.8c0,0,0,0,0,0
			c3.1,2,4.6,6.8,5.1,11.6c0,0.5,0.1,0.9,0.2,1.3c0.1,0.4,0.1,0.7,0.2,0.9c0,0.1,0,0.1,0,0.2C93.2,84.7,105.5,74.8,106,74z"/>
		<path class="st9" d="M122.8,91.7c-3.5,3.9-12.3,11.2-18.7,11.6c8.9-0.2,12.5,4.2,15.1,10c2.7-5.4,2.7-10.5,2.7-16.5
			C121.9,94.3,123.7,90.7,122.8,91.7z"/>
		<path class="st9" d="M128.2,68.2L123,64c0,0-1.2,3.1-1,4.7c0.1,1.6-1.8,2.8-0.9,3.7s3.3,2.6,4.1,3.5c0.8,0.9,1.1,7.2,1.1,7.2
			l2.2,2.8c0,0,1-1.9,1.1-6.4c0.2-5.6-3-7.3-3.4-8.8C125.8,69.2,126.9,67.6,128.2,68.2z"/>
		<path class="st9" d="M136.4,93l-3.2,10.5c0,0,1.8,5.8,1.6,6.6c-0.2,0.8-3.4,4.8-3.4,4.8l4,0.4c0,0,1.2-2.2,2.2-3.6
			c0.9-1.4,0.4-1.6,0-4.7C137.2,103.9,136.2,97.4,136.4,93z"/>
		<path class="st9" d="M134.9,54.4l-4.5-0.8l-0.5-1.3l-1.3-0.1c0.8,1.8,1.8,2.6,3.4,3.2c0.9,0.3,4.6,0.8,6.1-0.8
			c0.7-0.7,0.2-2.8,0.2-2.8L134.9,54.4z"/>
		<path class="st9" d="M148,76.7c-0.9-0.8-1.4-2.5-1.6-3.4l-1.9,2.6l0.7,1.2c0,0,2.5,0.1,2.9,0.1C148.4,77.2,148.4,77.1,148,76.7z"
			/>
	</g>
</g>
<g>
	<g>
		<path class="st10" d="M78,182.6c-4.6,0-8.2-1.6-10.5-4.8c-2.3-3.1-3.5-7.4-3.5-12.7c0-5.3,1.5-9.6,4.4-12.6
			c2.9-3,6.5-4.5,10.7-4.5c4.2,0,8,1.2,11.3,3.5l0.3,0.2l0,0.3c-0.1,0.9-0.5,1.9-1.1,2.7c-0.6,0.9-1.2,1.6-2,2l-0.3,0.2l-0.3-0.2
			c-2.5-1.8-5.1-2.7-7.7-2.7c-2.6,0-4.5,0.9-5.9,2.7c-1.4,1.8-2.1,4.8-2.1,8.7c0,7.4,2.6,11.1,8,11.1c1.5,0,3.1-0.2,4.7-0.5v-4
			c0-1.1,0-1.9,0.1-2.6h-2.8c-1.1,0-1.9-0.2-2.5-0.7c-0.6-0.5-0.9-1.3-0.9-2.3c0-0.9,0.2-1.8,0.5-2.7l0.1-0.4l7.8,0
			c3,0,4.6,1.5,4.6,4.4v12.7l-0.4,0.1C86.7,181.9,82.5,182.6,78,182.6z"/>
		<path class="st10" d="M78.8,164l7.3,0c0,0,0.1,0,0.1,0c2.7,0,4,1.3,4,3.8V180c-3.7,1.3-7.7,2-12.2,2c-4.5,0-7.8-1.5-10.1-4.5
			c-2.3-3-3.4-7.2-3.4-12.4c0-5.2,1.4-9.3,4.2-12.2c2.8-2.9,6.2-4.4,10.3-4.4c4.1,0,7.7,1.1,11,3.4c-0.1,0.8-0.4,1.7-1,2.5
			c-0.5,0.8-1.2,1.4-1.8,1.9c-2.6-1.8-5.3-2.8-8-2.8s-4.8,1-6.3,2.9c-1.5,1.9-2.3,4.9-2.3,9.1c0,7.7,2.9,11.6,8.6,11.6
			c1.7,0,3.4-0.2,5.2-0.6v-4.5c0-1.4,0-2.4,0.1-3.1h-3.4c-1,0-1.7-0.2-2.1-0.6c-0.5-0.4-0.7-1-0.7-1.9
			C78.4,165.7,78.5,164.8,78.8,164z"/>
	</g>
	<g>
		<path class="st10" d="M104.9,182.6c-4.1,0-8-1.2-11.6-3.6l-0.3-0.2l0-0.3c0.2-2,1.1-3.6,2.6-4.9l0.3-0.3l0.3,0.2
			c3.2,2,6.2,3,9.2,3c1.5,0,2.7-0.3,3.5-1c0.8-0.6,1.2-1.4,1.2-2.4c0.1-1.6-1.1-2.9-3.4-4l-5.5-2.3c-4.6-2-6.9-5-6.9-8.9
			c0-2.9,1.1-5.3,3.3-7.1c2.2-1.9,5-2.8,8.5-2.8c3.4,0,6.9,0.9,10.3,2.6l0.3,0.2l0,0.4c-0.1,2-0.9,3.7-2.2,5l-0.3,0.3l-0.3-0.2
			c-2.9-1.5-5.6-2.2-8-2.2c-1.4,0-2.5,0.3-3.2,1c-0.7,0.6-1.1,1.4-1.1,2.2c0,1.3,1,2.4,3.1,3.3l5.5,2.4c4.9,2.1,7.4,5.3,7.4,9.5
			c0,3-1.1,5.5-3.2,7.4C112.2,181.7,109,182.6,104.9,182.6z"/>
		<path class="st10" d="M93.7,178.5c0.2-1.8,1-3.4,2.4-4.5c3.3,2.1,6.4,3.1,9.5,3.1c1.6,0,2.9-0.4,3.8-1.1c0.9-0.7,1.4-1.7,1.4-2.8
			c0.1-1.8-1.2-3.3-3.8-4.5l-5.5-2.4c-4.4-1.9-6.5-4.7-6.5-8.4c0-2.7,1-4.9,3.1-6.7c2.1-1.8,4.8-2.7,8.1-2.7s6.7,0.8,10.1,2.5
			c-0.1,1.9-0.8,3.4-2.1,4.6c-3-1.5-5.8-2.3-8.2-2.3c-1.5,0-2.7,0.4-3.6,1.1c-0.9,0.7-1.3,1.6-1.3,2.7c0,1.5,1.1,2.8,3.4,3.8
			l5.5,2.4c4.7,2,7.1,5,7.1,9c0,2.9-1,5.2-3.1,7c-2,1.8-5.1,2.7-9.1,2.7C100.9,182.1,97.2,180.9,93.7,178.5z"/>
	</g>
	<g>
		<path class="st10" d="M143.6,182.3c-1.3,0-2.3-0.3-2.9-0.8c-0.6-0.5-1.1-1.4-1.5-2.8l-1.3-4.2l-2,0h-6.5l-2,0l-2.3,7.3l-0.3,0.1
			c-0.7,0.2-1.6,0.3-2.8,0.3c-1.2,0-2.2-0.2-3-0.5l-0.1-0.1l-0.5-0.6l10.7-32.3l0.3-0.1c1.1-0.2,2.3-0.2,3.7-0.2
			c1.4,0,2.5,0.1,3.4,0.3l0.3,0.1l10.6,32.4l-0.4,0.2C146,182.1,144.9,182.3,143.6,182.3z M134.8,168.6c0.1,0,0.4,0,0.9,0
			c0.1,0,0.3,0,0.4,0l-1.4-4.5c-0.7-2.3-1.4-4.7-2.1-7.3c-0.4,1.6-0.9,3.6-1.6,5.9l-1.8,5.9l1.5,0L134.8,168.6L134.8,168.6z"/>
		<path class="st10" d="M138.3,174l-2.4,0h-6.5l-2.4,0l-2.3,7.4c-0.6,0.2-1.5,0.2-2.7,0.2c-1.2,0-2.1-0.1-2.8-0.4l-0.2-0.3
			l10.5-31.7c1-0.2,2.2-0.2,3.6-0.2c1.3,0,2.4,0.1,3.3,0.3l10.4,31.7c-0.9,0.5-2,0.8-3.1,0.8c-1.2,0-2-0.2-2.5-0.7
			c-0.5-0.5-1-1.3-1.3-2.5L138.3,174z M128.4,169.2l2.2,0h4.2c0.1,0,0.4,0,0.9,0s0.9,0,1.2,0l-1.6-5.3c-0.9-2.8-1.7-5.8-2.5-9h-0.2
			c-0.4,1.9-1.1,4.5-2,7.6L128.4,169.2z"/>
	</g>
	<g>
		<path class="st10" d="M154,182.2c-1.3,0-2.3-0.1-3.1-0.2l-0.4-0.1v-32.6l0.7-0.6l0.2,0c5-0.1,8.4-0.2,10.2-0.2
			c3.5,0,6.3,1,8.4,2.9c2.1,1.9,3.2,4.7,3.2,8.4s-1.1,6.4-3.2,8.4c-2.1,2-4.9,2.9-8.4,2.9h-4v10.8l-0.4,0.1
			C156.3,182.1,155.2,182.2,154,182.2z M157.5,165.4c1.8-0.1,3-0.1,3.6-0.1c1.8,0,2.9-0.5,3.6-1.6c0.7-1.1,1.1-2.5,1.1-4
			c0-1.5-0.4-2.9-1.1-4c-0.7-1-1.8-1.5-3.5-1.5c-1.5,0-2.8,0-3.7,0L157.5,165.4L157.5,165.4z"/>
		<path class="st10" d="M169.5,151.8c2,1.8,3,4.5,3,7.9s-1,6.1-3,8c-2,1.9-4.7,2.8-8,2.8H157v10.9c-0.8,0.2-1.8,0.2-3,0.2
			c-1.2,0-2.2-0.1-3-0.2v-31.9l0.3-0.3c5-0.1,8.3-0.2,10.2-0.2C164.8,149,167.5,150,169.5,151.8z M157,153.7V166
			c2.1-0.1,3.5-0.1,4.1-0.1c1.9,0,3.3-0.6,4.1-1.8c0.8-1.2,1.2-2.6,1.2-4.3c0-1.6-0.4-3.1-1.2-4.3c-0.8-1.2-2.1-1.8-4-1.8
			C159.4,153.7,157.9,153.7,157,153.7z"/>
	</g>
</g>
</svg>
