<?xml version="1.0" encoding="utf-8"?>
<!-- Generator: Adobe Illustrator 24.3.0, SVG Export Plug-In . SVG Version: 6.00 Build 0)  -->
<svg version="1.1" id="Warstwa_1" xmlns="http://www.w3.org/2000/svg" xmlns:xlink="http://www.w3.org/1999/xlink" x="0px" y="0px"
	 viewBox="0 0 232 232" style="enable-background:new 0 0 232 232;" xml:space="preserve" preserveAspectRatio="xMidYMid meet">
<style type="text/css">
	.st0{fill:#333333;}
	.st1{fill:#5B575A;}
	.st2{fill:#FFFFFF;}
	.st3{fill:#CA2026;}
</style>
<path class="st0" d="M232,116c0,3.7-6.7,7.1-7,10.7c-0.4,3.7,5.5,8.3,4.8,11.9c-0.7,3.6-7.9,5.7-9,9.2c-1.1,3.5,3.8,9.2,2.4,12.6
	c-1.4,3.4-8.9,4-10.6,7.2c-1.7,3.3,1.9,9.8-0.1,12.8c-2.1,3.1-9.5,2.2-11.8,5c-2.3,2.9,0,9.9-2.6,12.6c-2.6,2.6-9.7,0.3-12.6,2.6
	c-2.8,2.3-1.9,9.8-5,11.8c-3.1,2-9.6-1.6-12.8,0.1c-3.2,1.7-3.8,9.2-7.2,10.6c-3.4,1.4-9.1-3.5-12.6-2.4c-3.5,1.1-5.5,8.3-9.2,9
	c-3.6,0.7-8.2-5.2-11.9-4.8c-3.6,0.4-7,7-10.7,7s-7.1-6.7-10.7-7c-3.7-0.4-8.3,5.5-11.9,4.8c-3.6-0.7-5.7-7.9-9.2-9
	c-3.5-1.1-9.2,3.8-12.6,2.4c-3.4-1.4-4-8.9-7.2-10.6c-3.3-1.7-9.8,1.9-12.8-0.1c-3.1-2.1-2.2-9.5-5-11.8c-2.9-2.3-9.9,0-12.6-2.6
	c-2.6-2.6-0.3-9.7-2.6-12.6c-2.3-2.8-9.8-1.9-11.8-5c-2-3.1,1.6-9.6-0.1-12.8c-1.7-3.2-9.2-3.8-10.6-7.2c-1.4-3.4,3.5-9.1,2.4-12.6
	c-1.1-3.5-8.3-5.5-9-9.2c-0.7-3.6,5.2-8.2,4.8-11.9c-0.4-3.6-7-7-7-10.7c0-3.7,6.7-7.1,7-10.7c0.4-3.7-5.5-8.3-4.8-11.9
	c0.7-3.6,7.9-5.7,9-9.2c1.1-3.6-3.8-9.2-2.4-12.6c1.4-3.4,8.9-4,10.6-7.2c1.7-3.3-1.9-9.8,0.1-12.8c2.1-3.1,9.5-2.2,11.8-5
	c2.3-2.9,0-9.9,2.6-12.6c2.6-2.6,9.7-0.3,12.6-2.6c2.9-2.3,1.9-9.8,5-11.8c3.1-2,9.6,1.6,12.8-0.1c3.2-1.7,3.8-9.2,7.2-10.6
	c3.4-1.4,9.1,3.5,12.6,2.4c3.5-1.1,5.5-8.3,9.2-9c3.6-0.7,8.2,5.2,11.9,4.8c3.6-0.4,7-7,10.7-7s7.1,6.7,10.7,7
	c3.7,0.4,8.3-5.5,11.9-4.8c3.6,0.7,5.7,7.9,9.2,9c3.5,1.1,9.2-3.8,12.6-2.4c3.4,1.4,4,8.9,7.2,10.6c3.3,1.7,9.8-1.9,12.8,0.1
	c3.1,2.1,2.2,9.5,5,11.8c2.9,2.3,10,0,12.6,2.6c2.6,2.6,0.3,9.7,2.6,12.6c2.3,2.8,9.8,1.9,11.8,5c2.1,3.1-1.6,9.6,0.1,12.8
	c1.7,3.2,9.2,3.8,10.6,7.2c1.4,3.4-3.5,9.1-2.4,12.6c1.1,3.5,8.3,5.5,9,9.2c0.7,3.6-5.2,8.2-4.8,11.9C225.3,108.9,232,112.3,232,116
	z"/>
<path class="st1" d="M116,207.9c-50.7,0-91.9-41.2-91.9-91.9S65.3,24.1,116,24.1c50.7,0,91.9,41.2,91.9,91.9S166.7,207.9,116,207.9z
	 M116,25.1c-50.1,0-90.9,40.8-90.9,90.9c0,50.1,40.8,90.9,90.9,90.9c50.1,0,90.9-40.8,90.9-90.9C206.9,65.9,166.1,25.1,116,25.1z"/>
<path class="st1" d="M116,14.6C60,14.6,14.6,60,14.6,116c0,56,45.4,101.4,101.4,101.4c56,0,101.4-45.4,101.4-101.4
	C217.4,60,172,14.6,116,14.6z M116,214.5c-54.4,0-98.5-44.1-98.5-98.5c0-54.4,44.1-98.5,98.5-98.5c54.4,0,98.5,44.1,98.5,98.5
	C214.5,170.4,170.4,214.5,116,214.5z"/>
<path id="tube_2_" class="st2" d="M157.8,140.9L157.8,140.9c-0.8,0-1.6-0.1-2.4-0.4c-3.2-1.2-5-4.8-4.1-8l0,0l0.2-0.6L168,88.9
	c0.2-0.6,0.1-2.2,0-3c0-0.2,0-0.4,0-0.6l0,0c0,0,0-0.1,0-0.1c0.3-0.7,1.1-1,2.4-1c1.6,0,3.8,0.5,6,1.4c1.9,0.7,3.6,1.6,4.8,2.5
	c1.4,1.1,2,2,1.7,2.9c0,0,0,0.1,0,0.1l0,0c-0.1,0.2-0.2,0.3-0.3,0.4c-0.7,0.6-1.8,1.7-2,2.2l-16.7,43.5l0,0
	C162.7,139.4,160.4,140.9,157.8,140.9z M152.7,132.1l0,0.1c-1.1,2.8,0.4,6,3.2,7.1c0.6,0.2,1.3,0.4,2,0.4c2.3,0,4.3-1.4,5.2-3.5
	l0.1-0.1l16.4-42.7c0.3-0.9,2-2.4,2.3-2.7l0,0c0,0,0,0,0,0l0,0c0-0.1-0.1-0.6-1.3-1.5c-1.1-0.8-2.7-1.7-4.5-2.4
	c-2.1-0.8-4.2-1.3-5.6-1.3c-0.9,0-1.3,0.2-1.3,0.3v0c0,0,0,0,0,0.1v0c0,0.2,0.3,2.4-0.1,3.6L152.7,132.1z"/>
<path id="liquid_2_" class="st3" d="M173.8,104.9c0,0-2.3,2.6-4.4,3.6c-2.1,0.9-3.6,0.7-5.5,1.8c-1.9,1.1-2.8,2.6-2.8,2.6l-7.6,19.8
	c-0.8,2.2,0.4,4.8,2.7,5.7c2.3,0.9,4.8-0.3,5.7-2.5l0,0L173.8,104.9z M166.1,116.3c0.4-0.2,0.8,0,0.9,0.4c0.2,0.4,0,0.8-0.4,0.9
	c-0.4,0.2-0.8,0-0.9-0.4C165.6,116.9,165.8,116.5,166.1,116.3z M163.1,113.1c0.2-0.1,0.5,0,0.6,0.2c0.1,0.2,0,0.5-0.2,0.6
	s-0.5,0-0.6-0.2C162.7,113.5,162.9,113.2,163.1,113.1z M159.8,124.2c-0.4,0.2-0.8,0-0.9-0.4c-0.2-0.4,0-0.8,0.4-0.9
	c0.4-0.2,0.8,0,0.9,0.4C160.3,123.7,160.1,124.1,159.8,124.2z M160.4,121.6c-0.3-0.7,0-1.5,0.7-1.8c0.7-0.3,1.5,0,1.8,0.7
	c0.3,0.7,0,1.5-0.7,1.8C161.5,122.6,160.7,122.3,160.4,121.6z M162.1,128.5c0.2-0.1,0.5,0,0.6,0.2c0.1,0.2,0,0.5-0.2,0.6
	s-0.5,0-0.6-0.2C161.8,128.9,161.9,128.6,162.1,128.5z"/>
<ellipse id="top_2_" transform="matrix(0.359 -0.9333 0.9333 0.359 29.7499 220.4037)" class="st2" cx="175.3" cy="88.5" rx="1.2" ry="4.6"/>
<path id="jekyll-text_1_" class="st2" d="M74.8,110.4c0.7,0.6,2.1,0.2,2.9-0.7c0.9-1,1.1-2.3,0.3-2.9s-2.1-0.2-2.9,0.8
	C74.2,108.6,74.1,109.8,74.8,110.4z M72.6,112.3c-0.2,0-0.5,0.3-0.2,0.5c0.4,0.1,0.6,0.5,0.6,1c-0.3,2-2.8,4.3-3.8,5.1
	c-0.2,0.2,0.1,0.8,0.3,0.6c0.5-0.4,1.7-1.3,2.6-2.5c-1.5,3.4-4.4,7.7-5.6,9.2c-4.4,6.1-11.1,11.7-15.6,11.7c-3.7,0-6.8-2.5-7.4-6.1
	c0-0.4-0.6-0.5-0.5,0c0.8,5,4.7,7,9.3,7c5.1,0,11.1-3.7,14.4-7.5c5.3-6.1,8.8-13.2,7.9-17.2C74.3,112.5,73.2,112.3,72.6,112.3z
	 M105.5,125.6c1.4-0.3,2.6-1.1,2.6-2.3c0-0.1-0.2-0.1-0.2,0c0,0.7-0.8,1.3-1.8,1.5c-2.2,0.3-6.5-2.2-8.6-4.9
	c2.2,0.8,6.7-0.4,8.8-1.9c2-1.4,2.7-3,2.9-4.2c0.2-2.1-2.1-3.3-5.2-2.1c-2.1,0.8-4.5,2.6-7,6c2.7-4.4,7.9-11.6,13.1-16.2
	c6.3-5.6,9.9-4.5,4.3,1.4c-2.3,2.4-6.7,5.6-9.7,7c-0.9,0.4-0.5,0.9,0.2,0.6c3.2-1.4,7.5-4.3,10.1-6.8c7.6-7.3,1.3-12.9-7.2-5.1
	c-5.7,5.3-9.5,10.9-12.8,18.1c-1.1,1.4-2,2.5-3,3.4c-0.1,0.1-0.2,0.2-0.3,0.3c-2.8,2.4-7.2,5.7-10,5.7c-2,0-2.8-1.4-2.4-3.3
	c0.5-3,3.6-6.5,6.2-7.7c3.4-1.6,5.4,1.5,0.9,3.9c-1.7,0.9-3.8,1.4-4.6,1.4c-1,0-0.9,0.4,0,0.4c1.4,0,3.6-0.5,5-1.2
	c4.6-2.2,4.9-6.3-0.1-6.4c-5.4-0.2-11.9,4.4-11.8,10.2c0,2.6,2.2,4,5,4c4.8,0,9.1-3.7,12.5-6.9c0.5-0.4,1-0.9,1.5-1.4
	c-1.2,3.1-1.9,6-1.6,8.1c0.2,1.6,1.1,2.3,1.8,2.9c0.1,0.1,0.4,0,0.2-0.3c-1-1.2-0.7-4.8,0.7-8.3C96.2,123.8,100.7,126.7,105.5,125.6
	z M99.8,115.5c5.6-5,7.8-0.5,4.2,2.2c-1.9,1.4-5.5,2.5-6.7,1.8l-0.2-0.1c-0.1-0.2-0.3-0.5-0.4-0.7C97.6,117.5,98.7,116.5,99.8,115.5
	z M130.8,109.8c2.2,0.2,1.3-2.5-1-1.8c-1,0.3-2,2.2-2.7,3.9c-2.2,3.4-6,7.9-8.6,10.3c-2.3,2-4.5,2.5-1.9-1.2
	c1.1-1.5,2.4-3.1,3.2-4.7c1.9-4-2.1-5.8-5.3-3.4c-1.9,1.4-4.3,4.3-6.3,5.9c-0.5,0.4-0.4,1.1,0.1,0.6c1.6-1.3,4.3-4.1,6.6-5.8
	c2-1.5,2.7-0.5,1.6,0.7c-1.6,1.8-4.3,4.9-5,6.9c-1,3,0.2,4.3,2.1,4.3c2.7,0,6.7-4.2,9.3-7.5c0.9-1.1,1.9-2.4,2.7-3.7
	c-2.3,4.5-4.8,9.1-7.8,13.2c-4.3,5.8-9.6,10.2-14.7,10.2c-3.7,0-6.8-2.5-7.5-6.1c0-0.4-0.5-0.5-0.5,0c0.8,5,4.7,7,9.3,7
	c5.1,0,10-3,13.5-6.6c7-7.3,7.8-15.6,9.9-20.2C129.2,109.8,130.1,109.7,130.8,109.8z M159.2,102.7c1-1.8,1-3.1-1.4-3.1
	c-1.8,0-5.1,1.3-6.6,2.5c-0.3,0.3-0.2,0.5,0.2,0.3c0.3-0.1,0.6-0.3,1-0.4c1.7-0.9,1,1,0.6,1.8c-2.1,3.6-5.6,8.6-7.5,11.1
	c-0.9,1.2-1.9,2.4-2.9,3.5c-1.8,1.7-5.4,4.8-8.2,5.8c-8.9,3.3,2.4-11.8,3.4-13c2.1-2.6,6.8-7.2,8.2-9.5c1-1.8,1-3.1-1.4-3.1
	c-1.8,0-5.1,1.3-6.6,2.5c-0.3,0.3-0.2,0.5,0.2,0.3c0.3-0.1,0.6-0.3,1-0.4c1.7-0.9,1,1,0.6,1.8c-2.1,3.6-5.6,8.6-7.5,11.1
	c-1.6,2.1-3.5,4.2-4.9,5.3c-0.6,0.5-0.2,0.9,0.3,0.5c0.5-0.3,1.3-1.1,2.2-2.1c-1.6,3.2-2.9,7.7,1.3,8.3c3.6,0.5,7.9-3.2,10.7-5.9
	c0.3-0.3,0.6-0.6,1-1c0.1-0.1,0.2-0.2,0.2-0.2c-1.6,3.2-2.9,7.7,1.3,8.3c4.6,0.6,10.4-5.6,12.6-7.9c0.4-0.4,0.3-1.2-0.4-0.4
	c-1.3,1.4-5.7,5.4-9,6.6c-8.9,3.3,2.4-11.8,3.4-13C153.1,109.6,157.8,105,159.2,102.7z"/>
</svg>
