<?xml version="1.0" encoding="utf-8"?>
<!-- Generator: Adobe Illustrator 24.3.0, SVG Export Plug-In . SVG Version: 6.00 Build 0)  -->
<svg version="1.1" id="Warstwa_1" xmlns="http://www.w3.org/2000/svg" xmlns:xlink="http://www.w3.org/1999/xlink" x="0px" y="0px"
	 viewBox="0 0 232 232" style="enable-background:new 0 0 232 232;" xml:space="preserve" preserveAspectRatio="xMidYMid meet">
<style type="text/css">
	.st0{fill:#136CB0;}
	.st1{fill:#4B91CD;}
	.st2{fill:#FFFFFF;}
</style>
<path class="st0" d="M232,116c0,3.7-6.7,7.1-7,10.7c-0.4,3.7,5.5,8.3,4.8,11.9c-0.7,3.6-7.9,5.7-9,9.2c-1.1,3.5,3.8,9.2,2.4,12.6
	c-1.4,3.4-8.9,4-10.6,7.2c-1.7,3.3,1.9,9.8-0.1,12.8c-2.1,3.1-9.5,2.2-11.8,5c-2.3,2.9,0,9.9-2.6,12.6c-2.6,2.6-9.7,0.3-12.6,2.6
	c-2.8,2.3-1.9,9.8-5,11.8c-3.1,2.1-9.6-1.6-12.8,0.1c-3.2,1.7-3.8,9.2-7.2,10.6c-3.4,1.4-9.1-3.5-12.6-2.4c-3.5,1.1-5.5,8.3-9.2,9
	c-3.6,0.7-8.2-5.2-11.9-4.8c-3.6,0.4-7,7-10.7,7c-3.7,0-7.1-6.7-10.7-7c-3.7-0.4-8.3,5.5-11.9,4.8c-3.6-0.7-5.7-7.9-9.2-9
	c-3.5-1.1-9.2,3.8-12.6,2.4c-3.4-1.4-4-8.9-7.2-10.6c-3.3-1.7-9.8,1.9-12.8-0.1c-3.1-2.1-2.2-9.5-5-11.8c-2.9-2.3-9.9,0-12.6-2.6
	c-2.6-2.6-0.3-9.7-2.6-12.6c-2.3-2.8-9.8-1.9-11.8-5c-2-3.1,1.6-9.6-0.1-12.8c-1.7-3.2-9.2-3.8-10.6-7.2c-1.4-3.4,3.5-9.1,2.4-12.6
	c-1.1-3.5-8.3-5.5-9-9.2c-0.7-3.6,5.2-8.2,4.8-11.9c-0.4-3.6-7-7-7-10.7c0-3.7,6.7-7.1,7-10.7c0.4-3.7-5.5-8.3-4.8-11.9
	c0.7-3.6,7.9-5.7,9-9.2c1.1-3.6-3.8-9.2-2.4-12.6c1.4-3.4,8.9-4,10.6-7.2c1.7-3.3-1.9-9.8,0.1-12.8c2.1-3.1,9.5-2.2,11.8-5
	c2.3-2.9,0-9.9,2.6-12.6c2.6-2.6,9.7-0.3,12.6-2.6c2.8-2.3,1.9-9.8,5-11.8c3.1-2,9.6,1.6,12.8-0.1c3.2-1.7,3.8-9.2,7.2-10.6
	c3.4-1.4,9.1,3.5,12.6,2.4c3.5-1.1,5.5-8.3,9.2-9c3.6-0.7,8.2,5.2,11.9,4.8c3.6-0.4,7-7,10.7-7c3.7,0,7.1,6.7,10.7,7
	c3.7,0.4,8.3-5.5,11.9-4.8c3.6,0.7,5.7,7.9,9.2,9c3.5,1.1,9.2-3.8,12.6-2.4c3.4,1.4,4,8.9,7.2,10.6c3.3,1.7,9.8-1.9,12.8,0.1
	c3.1,2.1,2.2,9.5,5,11.8c2.9,2.3,10,0,12.6,2.6c2.6,2.6,0.3,9.7,2.6,12.6c2.3,2.8,9.8,1.9,11.8,5c2,3.1-1.6,9.6,0.1,12.8
	c1.7,3.2,9.2,3.8,10.6,7.2c1.4,3.4-3.5,9.1-2.4,12.6c1.1,3.5,8.3,5.5,9,9.2c0.7,3.6-5.2,8.2-4.8,11.9C225.3,108.9,232,112.3,232,116
	z"/>
<path class="st1" d="M115.6,207.9c-50.7,0-91.9-41.2-91.9-91.9s41.2-91.9,91.9-91.9c50.7,0,91.9,41.2,91.9,91.9
	S166.3,207.9,115.6,207.9z M115.6,25.1c-50.1,0-90.9,40.8-90.9,90.9c0,50.1,40.8,90.9,90.9,90.9c50.1,0,90.9-40.8,90.9-90.9
	C206.5,65.9,165.7,25.1,115.6,25.1z"/>
<path class="st1" d="M115.6,14.6C59.6,14.6,14.2,60,14.2,116c0,56,45.4,101.4,101.4,101.4c56,0,101.4-45.4,101.4-101.4
	C217,60,171.6,14.6,115.6,14.6z M115.6,214.5c-54.4,0-98.5-44.1-98.5-98.5c0-54.4,44.1-98.5,98.5-98.5c54.4,0,98.5,44.1,98.5,98.5
	C214.1,170.4,170,214.5,115.6,214.5z"/>
<g>
	<path class="st2" d="M115.1,47.2c-38.2,0-68.5,30.3-68.5,68.5c0,38.2,30.3,68.5,68.5,68.5s68.5-30.3,68.5-68.5
		C183.6,77.5,153.3,47.2,115.1,47.2z"/>
	<path d="M122,92.7v-1.1l-3.5,0.2c-1,0.1-1.7,0.3-2.2,0.6c-0.5,0.4-0.8,0.9-0.8,1.5c0,0.6,0.2,1.1,0.7,1.5c0.5,0.4,1.2,0.6,2,0.6
		c0.5,0,1-0.1,1.5-0.2c0.5-0.2,0.9-0.4,1.2-0.7c0.3-0.3,0.6-0.6,0.8-1C121.9,93.6,122,93.2,122,92.7z M115.1,47.2
		c-38.2,0-68.5,30.3-68.5,68.5c0,38.2,30.3,68.5,68.5,68.5s68.5-30.3,68.5-68.5C183.6,77.5,153.3,47.2,115.1,47.2z M128.4,87.8
		c0.3-0.9,0.8-1.7,1.4-2.3c0.6-0.6,1.3-1.1,2.1-1.5s1.8-0.5,2.8-0.5c0.9,0,1.8,0.1,2.5,0.4c0.7,0.3,1.4,0.6,1.9,1.1
		c0.5,0.5,1,1,1.3,1.6s0.5,1.3,0.6,2h-2.7c-0.1-0.4-0.2-0.7-0.4-1.1s-0.4-0.6-0.7-0.9c-0.3-0.2-0.6-0.4-1-0.6
		c-0.4-0.1-0.8-0.2-1.3-0.2c-0.6,0-1.1,0.1-1.6,0.4c-0.5,0.2-0.9,0.6-1.2,1c-0.3,0.4-0.6,1-0.8,1.6c-0.2,0.6-0.3,1.3-0.3,2.1
		c0,0.8,0.1,1.5,0.3,2.1c0.2,0.6,0.4,1.1,0.8,1.6c0.3,0.4,0.8,0.8,1.2,1c0.5,0.2,1,0.3,1.6,0.3c0.9,0,1.7-0.2,2.3-0.7
		c0.6-0.4,1-1.1,1.2-1.9h2.8c-0.1,0.8-0.3,1.4-0.6,2.1s-0.8,1.1-1.3,1.6c-0.5,0.4-1.2,0.8-1.9,1c-0.7,0.2-1.5,0.4-2.4,0.4
		c-1,0-2-0.2-2.8-0.5c-0.8-0.3-1.5-0.8-2.1-1.5c-0.6-0.6-1.1-1.4-1.4-2.3c-0.3-0.9-0.5-1.9-0.5-3.1
		C127.9,89.8,128.1,88.7,128.4,87.8z M89.3,83.7H92v2.4h0.1c0.2-0.4,0.4-0.8,0.7-1.1c0.3-0.3,0.6-0.6,0.9-0.8
		c0.4-0.2,0.7-0.4,1.2-0.5c0.4-0.1,0.9-0.2,1.3-0.2c1,0,1.9,0.2,2.6,0.7c0.7,0.5,1.2,1.2,1.5,2.1h0.1c0.2-0.4,0.4-0.8,0.7-1.2
		c0.3-0.3,0.6-0.6,1-0.9c0.4-0.2,0.8-0.4,1.3-0.6s1-0.2,1.5-0.2c0.7,0,1.4,0.1,1.9,0.3c0.6,0.2,1.1,0.5,1.5,1s0.7,0.9,1,1.5
		c0.2,0.6,0.3,1.2,0.3,2v9.8h-2.9V89c0-0.9-0.2-1.7-0.7-2.2c-0.5-0.5-1.2-0.8-2.1-0.8c-0.4,0-0.8,0.1-1.2,0.2
		c-0.4,0.2-0.7,0.4-1,0.7c-0.3,0.3-0.5,0.6-0.6,1c-0.2,0.4-0.2,0.8-0.2,1.3v9H98v-9.4c0-0.4-0.1-0.8-0.2-1.1
		c-0.1-0.3-0.3-0.6-0.6-0.9c-0.2-0.2-0.5-0.4-0.9-0.6C96,86,95.6,86,95.2,86c-0.4,0-0.9,0.1-1.2,0.2c-0.4,0.2-0.7,0.4-1,0.7
		c-0.3,0.3-0.5,0.6-0.6,1c-0.1,0.4-0.4,0.8-0.4,1.3v8.9h-2.7C89.3,98.1,89.3,83.7,89.3,83.7z M95.5,152.8C82.9,152.8,75,144,75,130
		c0-14,7.9-22.8,20.5-22.8S116,116,116,130C116,144,108.2,152.8,95.5,152.8z M118.9,98.1c-0.5,0.1-0.9,0.2-1.4,0.2
		c-0.7,0-1.4-0.1-2-0.3c-0.6-0.2-1.1-0.5-1.5-0.9c-0.4-0.4-0.8-0.8-1-1.3c-0.2-0.5-0.4-1.1-0.4-1.8c0-1.3,0.5-2.3,1.4-3
		c0.9-0.7,2.3-1.1,4.1-1.2l3.9-0.2v-1.1c0-0.8-0.3-1.5-0.8-1.9c-0.5-0.4-1.3-0.7-2.2-0.7c-0.4,0-0.8,0-1.1,0.1
		c-0.3,0.1-0.6,0.2-0.9,0.4c-0.3,0.2-0.5,0.4-0.6,0.7c-0.2,0.3-0.3,0.5-0.3,0.8h-2.7c0-0.6,0.2-1.2,0.5-1.8c0.3-0.5,0.7-1,1.2-1.4
		c0.5-0.4,1.1-0.7,1.8-0.9c0.7-0.2,1.4-0.3,2.3-0.3c0.9,0,1.7,0.1,2.4,0.3c0.7,0.2,1.3,0.5,1.8,1s0.9,0.9,1.2,1.5
		c0.3,0.6,0.4,1.2,0.4,1.9v9.9h-2.7v-2.4H122c-0.2,0.4-0.5,0.7-0.8,1.1c-0.3,0.3-0.7,0.6-1.1,0.8C119.8,97.8,119.4,97.9,118.9,98.1z
		 M137.1,152.8c-9.6,0-16.2-5-16.6-13h6.3c0.5,4.5,4.9,7.5,10.9,7.5c5.7,0,9.9-3,9.9-7.1c0-3.5-2.5-5.7-8.3-7.2l-5.7-1.4
		c-8.1-2-11.8-5.7-11.8-11.8c0-7.5,6.5-12.7,15.9-12.7c9.1,0,15.5,5.2,15.7,12.7H147c-0.4-4.5-4.1-7.3-9.6-7.3
		c-5.5,0-9.3,2.8-9.3,6.9c0,3.2,2.4,5.1,8.2,6.6l4.8,1.2c9.1,2.2,12.8,5.8,12.8,12.2C153.9,147.7,147.4,152.8,137.1,152.8z
		 M95.5,112.8c-8.6,0-14.1,6.6-14.1,17.2c0,10.5,5.4,17.1,14.1,17.1c8.6,0,14.1-6.6,14.1-17.1C109.6,119.4,104.1,112.8,95.5,112.8z"
		/>
</g>
</svg>
