<svg version="1.1" id="Layer_1" xmlns="http://www.w3.org/2000/svg" xmlns:xlink="http://www.w3.org/1999/xlink" x="0px" y="0px" viewBox="0 0 232 232" enable-background="new 0 0 232 232" preserveAspectRatio="xMidYMid meet" xml:space="preserve">
<path fill="#474443" d="M232,116c0,3.7-6.7,7.1-7,10.7c-0.4,3.7,5.5,8.3,4.8,11.9c-0.7,3.6-7.9,5.7-9,9.2c-1.1,3.6,3.8,9.2,2.4,12.6
	c-1.4,3.4-8.9,4-10.6,7.2c-1.7,3.3,1.9,9.8-0.1,12.8c-2.1,3.1-9.5,2.2-11.8,5c-2.3,2.9,0,9.9-2.6,12.6c-2.6,2.6-9.7,0.3-12.6,2.6
	c-2.8,2.3-1.9,9.8-5,11.8c-3.1,2.1-9.6-1.6-12.8,0.1c-3.2,1.7-3.8,9.2-7.2,10.6c-3.4,1.4-9.1-3.5-12.6-2.4c-3.5,1.1-5.5,8.3-9.2,9
	c-3.6,0.7-8.2-5.2-11.9-4.8c-3.6,0.4-7,7-10.7,7s-7.1-6.7-10.7-7c-3.7-0.4-8.3,5.5-11.9,4.8c-3.6-0.7-5.7-7.9-9.2-9
	c-3.5-1.1-9.2,3.8-12.6,2.4c-3.4-1.4-4-8.9-7.2-10.6c-3.3-1.7-9.8,1.9-12.8-0.1c-3.1-2.1-2.2-9.5-5-11.8c-2.9-2.3-10,0-12.6-2.6
	c-2.6-2.6-0.3-9.7-2.6-12.6c-2.3-2.8-9.8-1.9-11.8-5c-2-3.1,1.6-9.6-0.1-12.8c-1.7-3.2-9.2-3.8-10.6-7.2c-1.4-3.4,3.5-9.1,2.4-12.6
	c-1.1-3.5-8.3-5.5-9-9.2c-0.7-3.6,5.2-8.2,4.8-11.9c-0.4-3.6-7-7-7-10.7c0-3.7,6.7-7.1,7-10.7c0.4-3.7-5.5-8.3-4.8-11.9
	c0.7-3.6,7.9-5.7,9-9.2c1.1-3.6-3.8-9.2-2.4-12.6c1.4-3.4,8.9-4,10.6-7.2c1.7-3.3-1.9-9.8,0.1-12.8c2.1-3.1,9.5-2.2,11.8-5
	c2.3-2.9,0-9.9,2.6-12.6c2.6-2.6,9.7-0.3,12.6-2.6c2.9-2.3,1.9-9.8,5-11.8c3.1-2,9.6,1.6,12.8-0.1c3.2-1.7,3.8-9.2,7.2-10.6
	c3.4-1.4,9.1,3.5,12.6,2.4c3.5-1.1,5.5-8.3,9.2-9c3.6-0.7,8.2,5.2,11.9,4.8c3.6-0.4,7-7,10.7-7s7.1,6.7,10.7,7
	c3.7,0.4,8.3-5.5,11.9-4.8c3.6,0.7,5.7,7.9,9.2,9c3.5,1.1,9.2-3.8,12.6-2.4c3.4,1.4,4,8.9,7.2,10.6c3.3,1.7,9.8-1.9,12.8,0.1
	c3.1,2.1,2.2,9.5,5,11.8c2.9,2.3,10,0,12.6,2.6c2.6,2.6,0.3,9.7,2.6,12.6c2.3,2.8,9.8,1.9,11.8,5c2,3.1-1.6,9.6,0.1,12.8
	c1.7,3.2,9.2,3.8,10.6,7.2c1.4,3.4-3.5,9.1-2.4,12.6c1.1,3.5,8.3,5.5,9,9.2c0.7,3.6-5.2,8.2-4.8,11.9C225.3,108.9,232,112.3,232,116
	z"/>
<path fill="#6E6969" d="M115.6,207.9c-50.7,0-91.9-41.2-91.9-91.9c0-50.7,41.2-91.9,91.9-91.9c50.7,0,91.9,41.2,91.9,91.9
	C207.5,166.7,166.3,207.9,115.6,207.9z M115.6,25.1c-50.1,0-90.9,40.8-90.9,90.9c0,50.1,40.8,90.9,90.9,90.9s90.9-40.8,90.9-90.9
	C206.5,65.9,165.7,25.1,115.6,25.1z"/>
<path fill="#6E6969" d="M115.6,14.6C59.6,14.6,14.2,60,14.2,116c0,56,45.4,101.4,101.4,101.4c56,0,101.4-45.4,101.4-101.4
	C217,60,171.6,14.6,115.6,14.6z M115.6,214.5c-54.4,0-98.5-44.1-98.5-98.5c0-54.4,44.1-98.5,98.5-98.5c54.4,0,98.5,44.1,98.5,98.5
	C214.1,170.4,170,214.5,115.6,214.5z"/>
<path fill="#8CC64D" d="M111.2,60.6c2.7-1.5,6.2-1.5,8.9,0c13.5,7.6,27.1,15.3,40.6,22.9c2.5,1.4,4.2,4.3,4.2,7.2v46
	c0,3.1-1.9,6-4.5,7.4c-13.5,7.6-27,15.2-40.4,22.8c-2.7,1.6-6.3,1.4-9-0.2c-4-2.3-8.1-4.7-12.1-7c-0.8-0.5-1.8-0.9-2.3-1.7
	c0.5-0.7,1.4-0.8,2.2-1.1c1.7-0.5,3.2-1.4,4.8-2.2c0.4-0.3,0.9-0.2,1.2,0.1c3.5,2,6.9,4,10.3,6c0.7,0.4,1.5-0.1,2.1-0.5
	c13.2-7.5,26.5-14.9,39.7-22.4c0.5-0.2,0.8-0.8,0.7-1.3c0-15.2,0-30.3,0-45.5c0.1-0.6-0.3-1.2-0.8-1.4
	c-13.4-7.6-26.9-15.1-40.3-22.7c-0.5-0.3-1.1-0.3-1.6,0C101.4,74.4,87.9,82,74.5,89.6c-0.5,0.2-0.9,0.8-0.9,1.4
	c0,15.2,0,30.3,0,45.5c0,0.5,0.2,1,0.7,1.3c3.6,2,7.2,4.1,10.8,6.1c2,1.1,4.5,1.7,6.7,0.9c2-0.7,3.3-2.7,3.3-4.8
	c0-15.1,0-30.2,0-45.2c0-0.7,0.6-1.2,1.2-1.2c1.7,0,3.4,0,5.2,0c0.7,0,1.2,0.7,1.1,1.4c0,15.2,0,30.4,0,45.5c0,4-1.7,8.4-5.4,10.4
	c-4.6,2.4-10.3,1.9-14.9-0.4c-3.9-2-7.7-4.3-11.6-6.4c-2.7-1.4-4.6-4.3-4.5-7.4v-46c0-3,1.7-5.9,4.4-7.3
	C84.2,75.8,97.7,68.2,111.2,60.6z"/>
<path fill="#8CC64D" d="M122.9,92.5c5.9-0.4,12.2-0.2,17.5,2.7c4.1,2.2,6.4,6.9,6.4,11.4c-0.1,0.6-0.8,1-1.3,0.9c-1.7,0-3.4,0-5.1,0
	c-0.7,0-1.1-0.6-1.2-1.3c-0.5-2.2-1.7-4.3-3.7-5.4c-3.1-1.6-6.8-1.5-10.2-1.5c-2.5,0.1-5.2,0.3-7.3,1.8c-1.6,1.1-2.1,3.4-1.5,5.2
	c0.5,1.3,2.1,1.7,3.3,2.1c7.1,1.9,14.6,1.7,21.5,4.1c2.9,1,5.7,2.9,6.7,5.9c1.3,4,0.7,8.9-2.1,12.1c-2.3,2.7-5.7,4.1-9.1,4.9
	c-4.5,1-9.2,1-13.7,0.6c-4.3-0.5-8.8-1.6-12.1-4.5c-2.8-2.5-4.2-6.3-4.1-10c0-0.6,0.7-1.1,1.3-1c1.7,0,3.4,0,5.2,0
	c0.7,0,1.2,0.5,1.2,1.2c0.3,2.1,1.1,4.3,2.9,5.5c3.5,2.3,7.9,2.1,11.9,2.2c3.3-0.1,7-0.2,9.7-2.4c1.4-1.2,1.8-3.3,1.5-5.1
	c-0.4-1.5-2-2.2-3.4-2.7c-7-2.2-14.6-1.4-21.5-3.9c-2.8-1-5.5-2.9-6.6-5.8c-1.5-4.1-0.8-9.1,2.4-12.3
	C114.2,94.1,118.7,92.9,122.9,92.5L122.9,92.5z"/>
</svg>
