<?xml version="1.0" encoding="utf-8"?>
<!-- Generator: Adobe Illustrator 24.3.0, SVG Export Plug-In . SVG Version: 6.00 Build 0)  -->
<svg version="1.1" id="Warstwa_2" xmlns="http://www.w3.org/2000/svg" xmlns:xlink="http://www.w3.org/1999/xlink" x="0px" y="0px"
	 viewBox="0 0 232 232" style="enable-background:new 0 0 232 232;" xml:space="preserve" preserveAspectRatio="xMidYMid meet">
<style type="text/css">
	.st0{fill:#001E36;}
	.st1{fill:#3D729B;}
	.st2{fill:#31A8FF;}
</style>
<path class="st0" d="M232,116c0,3.7-6.7,7.1-7,10.7c-0.4,3.7,5.5,8.3,4.8,11.9c-0.7,3.6-7.9,5.7-9,9.2c-1.1,3.6,3.8,9.2,2.4,12.6
	c-1.4,3.4-8.9,4-10.6,7.2c-1.8,3.3,1.9,9.8-0.1,12.8c-2.1,3.1-9.5,2.2-11.8,5c-2.3,2.9,0,9.9-2.6,12.6c-2.6,2.6-9.7,0.3-12.6,2.6
	c-2.9,2.3-1.9,9.8-5,11.8c-3.1,2-9.6-1.6-12.8,0.1c-3.2,1.7-3.8,9.2-7.2,10.6c-3.4,1.4-9.1-3.5-12.6-2.4c-3.5,1.1-5.5,8.3-9.2,9
	c-3.6,0.7-8.2-5.2-11.9-4.8c-3.6,0.4-7,7-10.7,7c-3.7,0-7.1-6.7-10.7-7c-3.7-0.4-8.3,5.5-11.9,4.8c-3.6-0.7-5.7-7.9-9.2-9
	c-3.5-1.1-9.2,3.8-12.6,2.4c-3.4-1.4-4-8.9-7.2-10.6c-3.3-1.7-9.8,1.9-12.8-0.1c-3.1-2.1-2.2-9.5-5-11.8c-2.9-2.3-10,0-12.6-2.6
	c-2.6-2.6-0.3-9.7-2.6-12.6c-2.3-2.8-9.8-1.9-11.8-5c-2-3.1,1.6-9.6-0.1-12.8c-1.7-3.2-9.2-3.8-10.6-7.2c-1.4-3.4,3.5-9.1,2.4-12.6
	c-1.1-3.5-8.3-5.5-9-9.2c-0.7-3.6,5.2-8.2,4.8-11.9c-0.4-3.6-7-7-7-10.7c0-3.7,6.7-7.1,7-10.7c0.4-3.7-5.5-8.3-4.8-11.9
	c0.7-3.6,7.9-5.7,9-9.2c1.1-3.6-3.8-9.2-2.4-12.6c1.4-3.4,8.9-4,10.6-7.2c1.7-3.3-1.9-9.8,0.1-12.8c2.1-3.1,9.5-2.2,11.8-5
	c2.3-2.9,0-9.9,2.6-12.6c2.6-2.6,9.7-0.3,12.6-2.6c2.8-2.3,1.9-9.8,5-11.8c3.1-2,9.6,1.6,12.8-0.1c3.2-1.7,3.8-9.2,7.2-10.6
	c3.4-1.4,9.1,3.5,12.6,2.4c3.5-1.1,5.5-8.3,9.2-9c3.6-0.7,8.2,5.2,11.9,4.8c3.6-0.4,7-7,10.7-7c3.7,0,7.1,6.7,10.7,7
	c3.7,0.4,8.3-5.5,11.9-4.8c3.6,0.7,5.7,7.9,9.2,9c3.5,1.1,9.2-3.8,12.6-2.4c3.4,1.4,4,8.9,7.2,10.6c3.3,1.7,9.8-1.9,12.8,0.1
	c3.1,2.1,2.2,9.5,5,11.8c2.9,2.3,9.9,0,12.6,2.6c2.6,2.6,0.3,9.7,2.6,12.6c2.3,2.8,9.8,1.9,11.8,5c2.1,3.1-1.6,9.6,0.1,12.8
	c1.7,3.2,9.2,3.8,10.6,7.2c1.4,3.4-3.5,9.1-2.4,12.6c1.1,3.5,8.3,5.5,9,9.2c0.7,3.6-5.2,8.2-4.8,11.9C225.3,108.9,232,112.3,232,116
	z"/>
<path class="st1" d="M116,207.9c-50.7,0-91.9-41.2-91.9-91.9S65.3,24.1,116,24.1c50.7,0,91.9,41.2,91.9,91.9S166.7,207.9,116,207.9z
	 M116,25.1c-50.1,0-90.9,40.8-90.9,90.9c0,50.1,40.8,90.9,90.9,90.9c50.1,0,90.9-40.8,90.9-90.9C206.9,65.9,166.1,25.1,116,25.1z"/>
<path class="st1" d="M116,14.6C60,14.6,14.6,60,14.6,116c0,56,45.4,101.4,101.4,101.4c56,0,101.4-45.4,101.4-101.4
	C217.4,60,172,14.6,116,14.6z M116,214.5c-54.4,0-98.5-44.1-98.5-98.5c0-54.4,44.1-98.5,98.5-98.5c54.4,0,98.5,44.1,98.5,98.5
	C214.5,170.4,170.4,214.5,116,214.5z"/>
<g id="Outlined_Mnemonics_Logos">
	<path class="st2" d="M61.4,152.5V70.2c0-0.6,0.2-0.9,0.8-0.9c1.4,0,2.6,0,4.5-0.1c1.9-0.1,3.9-0.1,6.1-0.2c2.2-0.1,4.5-0.1,7-0.2
		c2.5-0.1,4.9-0.1,7.3-0.1c6.6,0,12,0.8,16.5,2.5c4,1.4,7.7,3.6,10.7,6.6c2.6,2.6,4.6,5.7,5.8,9.1c1.2,3.4,1.8,6.8,1.8,10.4
		c0,6.9-1.6,12.6-4.8,17c-3.2,4.5-7.7,7.8-12.9,9.8c-5.4,2-11.4,2.7-18,2.7c-1.9,0-3.2,0-4-0.1c-0.8-0.1-1.9-0.1-3.4-0.1v25.7
		c0.1,0.6-0.3,1-0.9,1.1c-0.1,0-0.2,0-0.3,0H62.4C61.7,153.6,61.4,153.3,61.4,152.5z M78.9,84.8v26.9c1.1,0.1,2.2,0.2,3.1,0.2h4.2
		c3.1,0,6.2-0.5,9.2-1.4c2.6-0.7,4.8-2.2,6.6-4.2c1.7-2,2.5-4.7,2.5-8.2c0.1-2.5-0.6-5-1.8-7.1c-1.4-2.1-3.3-3.7-5.6-4.6
		c-3-1.2-6.2-1.7-9.4-1.6c-2.1,0-3.9,0-5.4,0.1C80.5,84.6,79.4,84.7,78.9,84.8L78.9,84.8z"/>
	<path class="st2" d="M171.8,106.8c-2.4-1.3-5-2.2-7.7-2.7c-3-0.6-5.9-1-9-1c-1.6-0.1-3.3,0.2-4.8,0.6c-1,0.2-1.9,0.8-2.5,1.6
		c-0.4,0.6-0.6,1.4-0.6,2.2c0,0.7,0.3,1.4,0.8,2.1c0.7,0.9,1.7,1.6,2.7,2.2c1.8,1,3.8,1.8,5.7,2.6c4.3,1.4,8.5,3.4,12.3,5.8
		c2.6,1.7,4.8,3.9,6.3,6.6c1.3,2.6,1.9,5.4,1.8,8.2c0.1,3.8-1,7.5-3.1,10.6c-2.2,3.2-5.4,5.7-9,7.1c-3.9,1.7-8.7,2.6-14.5,2.6
		c-3.7,0-7.3-0.3-10.9-1c-2.8-0.5-5.6-1.4-8.2-2.6c-0.6-0.3-1-0.9-0.9-1.5v-13.9c0-0.2,0.1-0.6,0.3-0.7c0.2-0.2,0.5-0.1,0.7,0.1
		c3.1,1.8,6.4,3.1,9.9,3.9c3,0.8,6.2,1.2,9.4,1.2c3,0,5.2-0.4,6.6-1.1c1.3-0.6,2.2-1.9,2.2-3.4c0-1.1-0.6-2.2-1.9-3.2
		s-3.9-2.2-7.8-3.8c-4.1-1.4-7.8-3.4-11.4-5.8c-2.5-1.8-4.6-4.1-6.1-6.8c-1.3-2.6-1.9-5.4-1.8-8.2c0-3.4,1-6.7,2.7-9.7
		c2-3.2,5-5.8,8.4-7.4c3.8-1.9,8.5-2.8,14.2-2.8c3.3,0,6.6,0.2,9.9,0.7c2.4,0.3,4.7,1,6.9,1.8c0.3,0.1,0.6,0.4,0.8,0.7
		c0.1,0.3,0.2,0.6,0.2,1v13c0,0.3-0.2,0.6-0.4,0.8C172.5,106.9,172.1,106.9,171.8,106.8z"/>
</g>
</svg>
