<svg version="1.1" id="Layer_1" xmlns="http://www.w3.org/2000/svg" xmlns:xlink="http://www.w3.org/1999/xlink" x="0px" y="0px" viewBox="0 0 232 232" enable-background="new 0 0 232 232" preserveAspectRatio="xMidYMid meet" xml:space="preserve">
<path fill="#464342" d="M232,116c0,3.728-6.664,7.102-7.021,10.739c-0.357,3.705,5.523,8.301,4.811,11.894
	c-0.721,3.644-7.914,5.655-8.977,9.164c-1.078,3.55,3.791,9.214,2.383,12.606c-1.42,3.422-8.867,3.98-10.604,7.221
	c-1.746,3.264,1.916,9.77-0.135,12.83c-2.057,3.072-9.469,2.167-11.807,5.013c-2.346,2.854-0.02,9.948-2.631,12.557
	c-2.604,2.61-9.701,0.284-12.553,2.628c-2.85,2.34-1.943,9.752-5.016,11.809c-3.059,2.051-9.564-1.615-12.83,0.133
	c-3.24,1.735-3.797,9.186-7.217,10.605c-3.393,1.406-9.057-3.46-12.605-2.383c-3.51,1.062-5.52,8.258-9.164,8.98
	c-3.592,0.71-8.191-5.176-11.895-4.814c-3.637,0.355-7.008,7.018-10.739,7.018c-3.73,0-7.104-6.662-10.738-7.018
	c-3.706-0.361-8.306,5.524-11.896,4.814c-3.645-0.723-5.655-7.918-9.166-8.982c-3.548-1.075-9.211,3.791-12.605,2.385
	c-3.421-1.42-3.977-8.87-7.222-10.605c-3.263-1.748-9.769,1.916-12.827-0.133c-3.074-2.057-2.166-9.471-5.015-11.811
	c-2.853-2.343-9.952-0.016-12.558-2.626c-2.607-2.61-0.279-9.704-2.625-12.557c-2.34-2.85-9.753-1.944-11.81-5.013
	c-2.048-3.062,1.614-9.566-0.131-12.83c-1.739-3.242-9.186-3.801-10.604-7.221c-1.408-3.395,3.458-9.057,2.381-12.606
	c-1.062-3.509-8.258-5.521-8.979-9.164c-0.708-3.593,5.174-8.188,4.812-11.896C6.662,123.102,0,119.728,0,116
	c0-3.73,6.662-7.103,7.018-10.74c0.361-3.705-5.521-8.305-4.812-11.894c0.722-3.644,7.918-5.655,8.979-9.164
	c1.077-3.552-3.789-9.214-2.381-12.608c1.419-3.423,8.865-3.98,10.604-7.221c1.747-3.261-1.915-9.769,0.133-12.83
	c2.055-3.07,9.472-2.166,11.81-5.013c2.346-2.853,0.02-9.948,2.625-12.556c2.609-2.608,9.707-0.281,12.558-2.627
	c2.851-2.337,1.944-9.752,5.015-11.81c3.061-2.047,9.564,1.614,12.827-0.132c3.243-1.737,3.803-9.186,7.222-10.604
	c3.393-1.406,9.058,3.459,12.605,2.382c3.511-1.062,5.52-8.256,9.166-8.977c3.589-0.711,8.188,5.173,11.895,4.812
	C108.897,6.663,112.271,0,116.001,0c3.731,0,7.102,6.663,10.739,7.02c3.703,0.361,8.303-5.523,11.895-4.812
	c3.645,0.721,5.654,7.916,9.164,8.98c3.549,1.075,9.213-3.791,12.607-2.385c3.42,1.42,3.977,8.869,7.221,10.605
	c3.262,1.746,9.77-1.917,12.828,0.133c3.07,2.055,2.164,9.471,5.012,11.811c2.852,2.344,9.951,0.017,12.559,2.625
	c2.607,2.61,0.279,9.704,2.625,12.558c2.34,2.846,9.75,1.941,11.807,5.013c2.051,3.059-1.611,9.566,0.135,12.83
	c1.736,3.239,9.184,3.796,10.604,7.217c1.408,3.396-3.461,9.058-2.383,12.608c1.062,3.509,8.258,5.52,8.977,9.164
	c0.713,3.589-5.168,8.188-4.811,11.894C225.335,108.898,232,112.27,232,116z"/>
<path fill="#6E6968" d="M115.595,207.883c-50.66,0-91.88-41.22-91.88-91.883c0-50.664,41.22-91.88,91.88-91.88
	c50.663,0,91.881,41.216,91.881,91.88C207.476,166.664,166.257,207.883,115.595,207.883z M115.595,25.099
	c-50.121,0-90.898,40.778-90.898,90.902c0,50.124,40.777,90.901,90.898,90.901c50.122,0,90.901-40.777,90.901-90.901
	C206.496,65.877,165.716,25.099,115.595,25.099z"/>
<path fill="#6E6968" d="M115.595,14.586C59.586,14.586,14.185,59.99,14.185,116c0,56.011,45.401,101.414,101.41,101.414
	c56.01,0,101.415-45.403,101.415-101.414C217.009,59.99,171.605,14.586,115.595,14.586z M115.595,214.458
	c-54.375,0-98.455-44.079-98.455-98.457c0-54.376,44.08-98.458,98.455-98.458c54.377,0,98.458,44.082,98.458,98.458
	C214.052,170.378,169.972,214.458,115.595,214.458z"/>
<g id="icon" transform="translate(37.000000, 0.000000)">
	<g id="Rectangle" transform="translate(440.611794, 507.309544) rotate(-9.200000) translate(-440.611794, -507.309544) ">
		<g>
			<path id="path-2_11_" fill="#010101" d="M101.987,8.549l80.683,0c1.518,0,2.749,1.231,2.748,2.749l0,99.44
				c0.001,1.52-1.23,2.749-2.747,2.749l-80.684,0.001c-1.518,0-2.749-1.231-2.749-2.747l0-99.443
				C99.238,9.78,100.468,8.55,101.987,8.549z"/>
		</g>
		<g>
			<path id="path-2_1_" fill="#1E252B" d="M101.987,8.549l80.683,0c1.518,0,2.749,1.231,2.748,2.749l0,99.44
				c0.001,1.52-1.23,2.749-2.747,2.749l-80.684,0.001c-1.518,0-2.749-1.231-2.749-2.747l0-99.443
				C99.238,9.78,100.468,8.55,101.987,8.549z"/>
		</g>
	</g>
	<g id="Path-2">
		<g>
			<path id="path-4" fill="#2279BF" d="M77.535,83.143l7.558,48.73l0,0c0.043,0.271,0.299,0.46,0.571,0.417
				c0.069-0.011,0.136-0.037,0.194-0.074l10.596-6.858l0,0c0.166-0.106,0.253-0.302,0.223-0.498l-6.143-38.821l0,0
				c-0.03-0.198-0.176-0.357-0.369-0.407l-12.013-3.05l0,0c-0.268-0.067-0.54,0.094-0.608,0.362
				C77.528,83.008,77.524,83.076,77.535,83.143z"/>
		</g>
		<g>
			<path id="path-4_1_" fill="#2279BF" d="M77.535,83.143l7.558,48.73l0,0c0.043,0.271,0.299,0.46,0.571,0.417
				c0.069-0.011,0.136-0.037,0.194-0.074l10.596-6.858l0,0c0.166-0.106,0.253-0.302,0.223-0.498l-6.143-38.821l0,0
				c-0.03-0.198-0.176-0.357-0.369-0.407l-12.013-3.05l0,0c-0.268-0.067-0.54,0.094-0.608,0.362
				C77.528,83.008,77.524,83.076,77.535,83.143z"/>
		</g>
	</g>
	<g id="Path-4">
		<g>
			<path id="path-6" fill="#2279BF" d="M96.435,125.374l-11.17,7.246l0,0c-0.173,0.112-0.398,0.106-0.564-0.014l-42.707-31.022l0,0
				c-0.224-0.161-0.273-0.476-0.111-0.698c0.042-0.059,0.097-0.105,0.159-0.141l3.858-2.176l0,0
				c0.147-0.081,0.326-0.086,0.476-0.008l50.017,25.949l0,0c0.245,0.129,0.341,0.429,0.214,0.674
				C96.567,125.261,96.507,125.327,96.435,125.374z"/>
		</g>
		<g>
			<path id="path-6_1_" fill="#2279BF" d="M96.435,125.374l-11.17,7.246l0,0c-0.173,0.112-0.398,0.106-0.564-0.014l-42.707-31.022
				l0,0c-0.224-0.161-0.273-0.476-0.111-0.698c0.042-0.059,0.097-0.105,0.159-0.141l3.858-2.176l0,0
				c0.147-0.081,0.326-0.086,0.476-0.008l50.017,25.949l0,0c0.245,0.129,0.341,0.429,0.214,0.674
				C96.567,125.261,96.507,125.327,96.435,125.374z"/>
		</g>
	</g>
	<g id="Path-3">
		<g>
			<path id="path-7_12_" fill="#2279BF" d="M90.386,86.472L50.873,126.63l0,0c-0.109,0.11-0.263,0.165-0.417,0.145l-4.489-0.553l0,0
				c-0.274-0.032-0.469-0.281-0.435-0.557c0.011-0.086,0.044-0.168,0.096-0.239L77.618,82.77l0,0
				c0.121-0.161,0.327-0.234,0.523-0.184l12.013,3.051l0,0c0.268,0.067,0.43,0.34,0.361,0.607
				C90.494,86.33,90.449,86.409,90.386,86.472z"/>
		</g>
		<g>
			<path id="path-7_1_" fill="#2279BF" d="M90.386,86.472L50.873,126.63l0,0c-0.109,0.11-0.263,0.165-0.417,0.145l-4.489-0.553l0,0
				c-0.274-0.032-0.469-0.281-0.435-0.557c0.011-0.086,0.044-0.168,0.096-0.239L77.618,82.77l0,0
				c0.121-0.161,0.327-0.234,0.523-0.184l12.013,3.051l0,0c0.268,0.067,0.43,0.34,0.361,0.607
				C90.494,86.33,90.449,86.409,90.386,86.472z"/>
		</g>
	</g>
	<g id="Path-6">
		<g>
			<polygon id="path-10" fill="#2279BF" points="42.741,143.57 112.922,155.13 133.708,142.311 			"/>
		</g>
		<g>
			<polygon id="path-10_1_" fill="#2279BF" points="42.741,143.57 112.922,155.13 133.708,142.311 			"/>
		</g>
	</g>
	<polygon id="Path-5" fill="#2279BF" points="98.751,66.236 122.16,71.788 133.703,142.313 112.955,155.061 	"/>
</g>
</svg>
