<?xml version="1.0" encoding="utf-8"?>
<!-- Generator: Adobe Illustrator 24.3.0, SVG Export Plug-In . SVG Version: 6.00 Build 0)  -->
<svg version="1.1" id="Warstwa_1" xmlns="http://www.w3.org/2000/svg" xmlns:xlink="http://www.w3.org/1999/xlink" x="0px" y="0px"
	 viewBox="0 0 232 232" style="enable-background:new 0 0 232 232;" xml:space="preserve" preserveAspectRatio="xMidYMid meet">
<style type="text/css">
	.st0{fill:#D49429;}
	.st1{fill:#E4B978;}
	.st2{fill:url(#SVGID_1_);}
	.st3{fill:url(#SVGID_2_);}
	.st4{fill:url(#SVGID_3_);}
	.st5{fill:#FFFFFF;}
</style>
<path class="st0" d="M232,116c0,3.7-6.7,7.1-7,10.7c-0.4,3.7,5.5,8.3,4.8,11.9c-0.7,3.6-7.9,5.7-9,9.2c-1.1,3.5,3.8,9.2,2.4,12.6
	c-1.4,3.4-8.9,4-10.6,7.2c-1.7,3.3,1.9,9.8-0.1,12.8c-2.1,3.1-9.5,2.2-11.8,5c-2.3,2.9,0,9.9-2.6,12.6c-2.6,2.6-9.7,0.3-12.6,2.6
	c-2.8,2.3-1.9,9.8-5,11.8c-3.1,2-9.6-1.6-12.8,0.1c-3.2,1.7-3.8,9.2-7.2,10.6c-3.4,1.4-9.1-3.5-12.6-2.4c-3.5,1.1-5.5,8.3-9.2,9
	c-3.6,0.7-8.2-5.2-11.9-4.8c-3.6,0.4-7,7-10.7,7s-7.1-6.7-10.7-7c-3.7-0.4-8.3,5.5-11.9,4.8c-3.6-0.7-5.7-7.9-9.2-9
	c-3.5-1.1-9.2,3.8-12.6,2.4c-3.4-1.4-4-8.9-7.2-10.6c-3.3-1.7-9.8,1.9-12.8-0.1c-3.1-2.1-2.2-9.5-5-11.8c-2.9-2.3-9.9,0-12.6-2.6
	c-2.6-2.6-0.3-9.7-2.6-12.6c-2.3-2.8-9.8-1.9-11.8-5c-2-3.1,1.6-9.6-0.1-12.8c-1.7-3.2-9.2-3.8-10.6-7.2c-1.4-3.4,3.5-9.1,2.4-12.6
	c-1.1-3.5-8.3-5.5-9-9.2c-0.7-3.6,5.2-8.2,4.8-11.9c-0.4-3.6-7-7-7-10.7c0-3.7,6.7-7.1,7-10.7c0.4-3.7-5.5-8.3-4.8-11.9
	c0.7-3.6,7.9-5.7,9-9.2c1.1-3.6-3.8-9.2-2.4-12.6c1.4-3.4,8.9-4,10.6-7.2c1.7-3.3-1.9-9.8,0.1-12.8c2.1-3.1,9.5-2.2,11.8-5
	c2.3-2.9,0-9.9,2.6-12.6c2.6-2.6,9.7-0.3,12.6-2.6c2.9-2.3,1.9-9.8,5-11.8c3.1-2,9.6,1.6,12.8-0.1c3.2-1.7,3.8-9.2,7.2-10.6
	c3.4-1.4,9.1,3.5,12.6,2.4c3.5-1.1,5.5-8.3,9.2-9c3.6-0.7,8.2,5.2,11.9,4.8c3.6-0.4,7-7,10.7-7s7.1,6.7,10.7,7
	c3.7,0.4,8.3-5.5,11.9-4.8c3.6,0.7,5.7,7.9,9.2,9c3.5,1.1,9.2-3.8,12.6-2.4c3.4,1.4,4,8.9,7.2,10.6c3.3,1.7,9.8-1.9,12.8,0.1
	c3.1,2.1,2.2,9.5,5,11.8c2.9,2.3,10,0,12.6,2.6c2.6,2.6,0.3,9.7,2.6,12.6c2.3,2.8,9.8,1.9,11.8,5c2.1,3.1-1.6,9.6,0.1,12.8
	c1.7,3.2,9.2,3.8,10.6,7.2c1.4,3.4-3.5,9.1-2.4,12.6c1.1,3.5,8.3,5.5,9,9.2c0.7,3.6-5.2,8.2-4.8,11.9C225.3,108.9,232,112.3,232,116
	z"/>
<path class="st1" d="M116,207.9c-50.7,0-91.9-41.2-91.9-91.9S65.3,24.1,116,24.1c50.7,0,91.9,41.2,91.9,91.9S166.7,207.9,116,207.9z
	 M116,25.1c-50.1,0-90.9,40.8-90.9,90.9c0,50.1,40.8,90.9,90.9,90.9c50.1,0,90.9-40.8,90.9-90.9C206.9,65.9,166.1,25.1,116,25.1z"/>
<path class="st1" d="M116,14.6C60,14.6,14.6,60,14.6,116c0,56,45.4,101.4,101.4,101.4c56,0,101.4-45.4,101.4-101.4
	C217.4,60,172,14.6,116,14.6z M116,214.5c-54.4,0-98.5-44.1-98.5-98.5c0-54.4,44.1-98.5,98.5-98.5c54.4,0,98.5,44.1,98.5,98.5
	C214.5,170.4,170.4,214.5,116,214.5z"/>
<g>
	
		<linearGradient id="SVGID_1_" gradientUnits="userSpaceOnUse" x1="-571.418" y1="491.1913" x2="-571.2672" y2="490.7247" gradientTransform="matrix(219.6 0 0 -255.6 125585.7031 125607.9062)">
		<stop  offset="0.28" style="stop-color:#3AC0CD"/>
		<stop  offset="0.94" style="stop-color:#3182C4"/>
	</linearGradient>
	<polygon class="st2" points="73.7,172.3 56.5,70.1 88.5,56.9 108.7,68.9 127.5,58.9 166.3,73.9 144.5,184.7 	"/>
	
		<linearGradient id="SVGID_2_" gradientUnits="userSpaceOnUse" x1="-571.1774" y1="491.0165" x2="-570.8754" y2="490.6684" gradientTransform="matrix(185.6 0 0 -236 106123.1016 115954.5)">
		<stop  offset="0.14" style="stop-color:#FDEF47"/>
		<stop  offset="0.37" style="stop-color:#3AC0CD"/>
	</linearGradient>
	<polygon class="st3" points="184.5,100.1 167.9,59.3 138.1,56.7 91.7,101.1 104.1,158.5 127.5,174.7 184.5,140.9 170.5,114.7 	"/>
	
		<linearGradient id="SVGID_3_" gradientUnits="userSpaceOnUse" x1="-481.1898" y1="608.3309" x2="-477.5098" y2="613.67" gradientTransform="matrix(51.2 0 0 -80 29044.6992 39160.5)">
		<stop  offset="0.28" style="stop-color:#3AC0CD"/>
		<stop  offset="0.94" style="stop-color:#3182C4"/>
	</linearGradient>
	<polygon class="st4" points="158.9,93.9 170.5,114.7 184.5,100.1 174.3,74.7 	"/>
	<rect x="80.5" y="80.7" width="80" height="80"/>
	<path class="st5" d="M88.1,145.7h30v5h-30V145.7z M127.3,119.5l4.2-5.2c3,2.4,6,4,9.8,4c3,0,4.8-1.2,4.8-3.2c0-1.8-1.2-2.8-6.6-4.2
		c-6.6-1.8-10.8-3.6-10.8-10.2v-0.2c0-6,4.8-10,11.4-10c4.4,0,8.7,1.5,12.2,4.2l-3.8,5.6c-2.4-1.9-5.3-3-8.4-3.2
		c-2.6,0-4.2,1.2-4.2,3c0,2.2,1.4,3,7,4.4c6.6,1.8,10.4,4.2,10.4,10c0,6.6-5,10.4-12,10.4C136.2,124.8,131.2,122.9,127.3,119.5z
		 M120.9,91.1l-5,19.2l-5.6-19.2h-5.6l-5.6,19.2l-5-19.2h-7.8l9.6,33.2h6.2l5.4-19.2l5.4,19.2h6.2l9.6-33.2H120.9z"/>
</g>
</svg>
