<?xml version="1.0" encoding="utf-8"?>
<!-- Generator: Adobe Illustrator 24.3.0, SVG Export Plug-In . SVG Version: 6.00 Build 0)  -->
<svg version="1.1" id="Warstwa_2" xmlns="http://www.w3.org/2000/svg" xmlns:xlink="http://www.w3.org/1999/xlink" x="0px" y="0px"
	 viewBox="0 0 232 232" style="enable-background:new 0 0 232 232;" xml:space="preserve" preserveAspectRatio="xMidYMid meet">
<style type="text/css">
	.st0{fill:#460436;}
	.st1{fill:#B289A5;}
	.st2{fill:#FF61F6;}
</style>
<path class="st0" d="M232,116c0,3.7-6.7,7.1-7,10.7c-0.4,3.7,5.5,8.3,4.8,11.9c-0.7,3.6-7.9,5.7-9,9.2c-1.1,3.5,3.8,9.2,2.4,12.6
	c-1.4,3.4-8.9,4-10.6,7.2c-1.7,3.3,1.9,9.8-0.1,12.8c-2.1,3.1-9.5,2.2-11.8,5c-2.3,2.9,0,9.9-2.6,12.6c-2.6,2.6-9.7,0.3-12.6,2.6
	c-2.8,2.3-1.9,9.8-5,11.8c-3.1,2-9.6-1.6-12.8,0.1c-3.2,1.7-3.8,9.2-7.2,10.6c-3.4,1.4-9.1-3.5-12.6-2.4c-3.5,1.1-5.5,8.3-9.2,9
	c-3.6,0.7-8.2-5.2-11.9-4.8c-3.6,0.4-7,7-10.7,7s-7.1-6.7-10.7-7c-3.7-0.4-8.3,5.5-11.9,4.8c-3.6-0.7-5.7-7.9-9.2-9
	c-3.5-1.1-9.2,3.8-12.6,2.4c-3.4-1.4-4-8.9-7.2-10.6c-3.3-1.7-9.8,1.9-12.8-0.1c-3.1-2.1-2.2-9.5-5-11.8c-2.9-2.3-9.9,0-12.6-2.6
	c-2.6-2.6-0.3-9.7-2.6-12.6c-2.3-2.8-9.8-1.9-11.8-5c-2-3.1,1.6-9.6-0.1-12.8c-1.7-3.2-9.2-3.8-10.6-7.2c-1.4-3.4,3.5-9.1,2.4-12.6
	c-1.1-3.5-8.3-5.5-9-9.2c-0.7-3.6,5.2-8.2,4.8-11.9c-0.4-3.6-7-7-7-10.7c0-3.7,6.7-7.1,7-10.7c0.4-3.7-5.5-8.3-4.8-11.9
	c0.7-3.6,7.9-5.7,9-9.2c1.1-3.6-3.8-9.2-2.4-12.6c1.4-3.4,8.9-4,10.6-7.2c1.7-3.3-1.9-9.8,0.1-12.8c2.1-3.1,9.5-2.2,11.8-5
	c2.3-2.9,0-9.9,2.6-12.6c2.6-2.6,9.7-0.3,12.6-2.6c2.9-2.3,1.9-9.8,5-11.8c3.1-2,9.6,1.6,12.8-0.1c3.2-1.7,3.8-9.2,7.2-10.6
	c3.4-1.4,9.1,3.5,12.6,2.4c3.5-1.1,5.5-8.3,9.2-9c3.6-0.7,8.2,5.2,11.9,4.8c3.6-0.4,7-7,10.7-7s7.1,6.7,10.7,7
	c3.7,0.4,8.3-5.5,11.9-4.8c3.6,0.7,5.7,7.9,9.2,9c3.5,1.1,9.2-3.8,12.6-2.4c3.4,1.4,4,8.9,7.2,10.6c3.3,1.7,9.8-1.9,12.8,0.1
	c3.1,2.1,2.2,9.5,5,11.8c2.9,2.3,10,0,12.6,2.6c2.6,2.6,0.3,9.7,2.6,12.6c2.3,2.8,9.8,1.9,11.8,5c2.1,3.1-1.6,9.6,0.1,12.8
	c1.7,3.2,9.2,3.8,10.6,7.2c1.4,3.4-3.5,9.1-2.4,12.6c1.1,3.5,8.3,5.5,9,9.2c0.7,3.6-5.2,8.2-4.8,11.9C225.3,108.9,232,112.3,232,116
	z"/>
<path class="st1" d="M116,207.9c-50.7,0-91.9-41.2-91.9-91.9S65.3,24.1,116,24.1c50.7,0,91.9,41.2,91.9,91.9S166.7,207.9,116,207.9z
	 M116,25.1c-50.1,0-90.9,40.8-90.9,90.9c0,50.1,40.8,90.9,90.9,90.9c50.1,0,90.9-40.8,90.9-90.9C206.9,65.9,166.1,25.1,116,25.1z"/>
<path class="st1" d="M116,14.6C60,14.6,14.6,60,14.6,116c0,56,45.4,101.4,101.4,101.4c56,0,101.4-45.4,101.4-101.4
	C217.4,60,172,14.6,116,14.6z M116,214.5c-54.4,0-98.5-44.1-98.5-98.5c0-54.4,44.1-98.5,98.5-98.5c54.4,0,98.5,44.1,98.5,98.5
	C214.5,170.4,170.4,214.5,116,214.5z"/>
<g id="Layer_1">
	<path class="st2" d="M118.4,80.3l-21,34.6l22.4,36.8c0.1,0.3,0.2,0.6,0.1,0.8s-0.3,0.1-0.8,0.1h-16c-1.1,0-1.9-0.1-2.4-0.8
		c-1.5-2.9-3-5.8-4.5-8.8c-1.5-2.9-3.1-5.8-4.8-8.8c-1.7-3-3.4-6-5-9.1h-0.1c-1.5,3-3.1,6-4.7,9c-1.6,3-3.2,6-4.8,9
		c-1.6,2.9-3.2,5.9-4.8,8.8c-0.3,0.7-0.8,0.8-1.6,0.8H55.1c-0.3,0-0.5,0.1-0.5-0.2c-0.1-0.3,0-0.6,0.1-0.8l21.8-35.7L55.3,80.3
		c-0.2-0.3-0.3-0.6-0.1-0.7c0.1-0.2,0.4-0.3,0.7-0.3h15.9c0.3,0,0.7,0.1,1,0.1c0.3,0.1,0.5,0.3,0.7,0.6c1.3,3,2.9,6,4.5,9
		c1.7,3,3.3,5.9,5,8.9c1.7,2.9,3.2,5.9,4.7,8.9h0.1c1.5-3.1,3-6.1,4.5-9c1.5-2.9,3.2-5.9,4.8-8.8s3.2-5.9,4.7-8.8
		c0.1-0.3,0.2-0.6,0.4-0.7c0.3-0.1,0.6-0.2,0.9-0.1h14.8c0.3-0.1,0.7,0.1,0.8,0.5C118.7,79.9,118.6,80.2,118.4,80.3L118.4,80.3z"/>
	<path class="st2" d="M150.8,154.2c-5.2,0.1-10.4-1-15.1-3.1c-4.4-2-8.1-5.4-10.6-9.5c-2.6-4.3-3.8-9.6-3.8-16
		c-0.1-5.2,1.3-10.3,3.8-14.8c2.7-4.5,6.5-8.3,11.1-10.8c4.9-2.7,10.8-4.1,17.7-4.1c0.4,0,0.8,0,1.5,0.1c0.6,0.1,1.3,0.1,2.2,0.1V74
		c0-0.5,0.2-0.8,0.7-0.8h14.2c0.3-0.1,0.6,0.2,0.7,0.5c0,0.1,0,0.1,0,0.1v66.6c0,1.3,0.1,2.7,0.1,4.2c0.1,1.5,0.2,2.9,0.3,4.1
		c0,0.5-0.2,0.9-0.7,1.1c-3.6,1.5-7.5,2.7-11.4,3.4C158,153.8,154.4,154.2,150.8,154.2z M157.6,140.2v-30.8
		c-0.6-0.1-1.3-0.3-1.9-0.3c-0.8-0.1-1.5-0.1-2.3-0.1c-2.7,0-5.5,0.6-7.9,1.8c-2.4,1.2-4.4,2.9-5.9,5.2c-1.5,2.2-2.3,5.2-2.3,8.9
		c-0.1,2.4,0.4,4.9,1.2,7.2c0.7,1.9,1.8,3.6,3.1,5c1.3,1.3,2.9,2.2,4.8,2.8c1.9,0.6,3.8,0.9,5.8,0.9c1.1,0,2-0.1,2.9-0.1
		C156,140.6,156.8,140.5,157.6,140.2z"/>
</g>
</svg>
